<svg width="301" height="217" viewBox="0 0 301 217" fill="none" xmlns="http://www.w3.org/2000/svg">
<path d="M0 30C0 13.4315 13.4315 0 30 0H271C287.569 0 301 13.4315 301 30V108.5V187C301 203.569 287.569 217 271 217H30C13.4315 217 0 203.569 0 187L0 30Z" fill="#F0F0F0"/>
<g style="mix-blend-mode:darken">
<path d="M36.5801 24.116V22.736H29.1161V22.088H37.3121V24.104C37.3121 24.824 37.2161 25.688 37.0481 26.288H36.3281C36.4961 25.676 36.5801 24.824 36.5801 24.116ZM28.4561 27.968V27.32H38.0441V27.968H28.4561ZM29.9321 29.456V32H37.5161V32.636H29.2001V29.456H29.9321ZM48.9156 27.032H40.6236V22.088H48.9156V27.032ZM48.1836 26.384V22.724H41.3556V26.384H48.1836ZM40.0356 29.732V29.084H49.5036V29.732H45.1236V32.768H44.3916V29.732H40.0356ZM54.5192 28.508C54.1712 30.02 52.9352 31.28 51.4472 31.844V31.172C52.8152 30.548 54.1472 29.276 54.1472 26.348V22.076H54.8792V26.348C54.8792 29.276 56.2352 30.5 57.5912 31.172V31.844C56.1272 31.244 54.8672 30.02 54.5192 28.508ZM59.6312 32.564V21.944H60.3632V32.564H59.6312ZM63.2307 22.088H68.5707V22.724H66.2787V23.852C66.2787 25.616 67.5027 26.648 68.7627 26.948V27.62C67.4667 27.308 66.3747 26.48 65.9187 25.424C65.4867 26.504 64.3947 27.476 63.0627 27.764V27.092C64.3587 26.792 65.5467 25.664 65.5467 23.852V22.724H63.2307V22.088ZM71.6307 21.944V24.584H73.3107V25.232H71.6307V28.028H70.8987V21.944H71.6307ZM63.7347 29.096H71.6307V32.768H70.8987V29.732H63.7347V29.096ZM74.7502 24.344C74.7502 23.54 75.0862 22.904 75.6022 22.484C76.0822 22.088 76.7422 21.884 77.4982 21.884C78.2422 21.884 78.9022 22.088 79.3822 22.484C79.9102 22.904 80.2342 23.54 80.2342 24.344C80.2342 25.148 79.9102 25.796 79.3822 26.216C78.9022 26.612 78.2422 26.828 77.4982 26.828C76.7422 26.828 76.0822 26.612 75.6022 26.216C75.0862 25.796 74.7502 25.148 74.7502 24.344ZM75.4702 24.344C75.4702 24.932 75.6862 25.4 76.0462 25.712C76.4062 26.024 76.9222 26.192 77.4982 26.192C78.0622 26.192 78.5782 26.024 78.9382 25.712C79.2982 25.4 79.5142 24.932 79.5142 24.344C79.5142 23.756 79.2982 23.288 78.9382 22.988C78.5782 22.664 78.0622 22.496 77.4982 22.496C76.9222 22.496 76.4062 22.664 76.0462 22.988C75.6862 23.288 75.4702 23.756 75.4702 24.344ZM83.4502 26.972H82.7182V21.944H83.4502V26.972ZM76.3222 30.656V32.108H83.5942V32.708H75.5902V30.056H82.7182V28.592H75.5902V27.992H83.4502V30.656H76.3222ZM225.99 24.116V22.736H218.526V22.088H226.722V24.104C226.722 24.824 226.626 25.688 226.458 26.288H225.738C225.906 25.676 225.99 24.824 225.99 24.116ZM217.866 27.968V27.32H227.454V27.968H217.866ZM219.342 29.456V32H226.926V32.636H218.61V29.456H219.342ZM238.326 27.032H230.034V22.088H238.326V27.032ZM237.594 26.384V22.724H230.766V26.384H237.594ZM229.446 29.732V29.084H238.914V29.732H234.534V32.768H233.802V29.732H229.446ZM241.649 22.712V22.088H249.749V22.712H246.053V22.916C246.053 24.176 248.249 24.968 249.893 25.1V25.76C248.213 25.604 246.377 24.908 245.693 23.912C244.985 24.92 243.137 25.64 241.469 25.76V25.1C243.101 25.016 245.321 24.164 245.321 22.916V22.712H241.649ZM240.905 27.8V27.152H245.321V25.376H246.053V27.152H250.493V27.8H240.905ZM241.445 31.028C241.445 30.5 241.685 30.08 242.189 29.792C242.909 29.348 244.097 29.12 245.717 29.12C247.337 29.12 248.525 29.348 249.233 29.792C249.737 30.08 249.989 30.5 249.989 31.028C249.989 31.556 249.737 31.976 249.233 32.276C248.525 32.72 247.337 32.912 245.717 32.912C244.097 32.912 242.909 32.72 242.189 32.276C241.685 31.976 241.445 31.556 241.445 31.028ZM242.177 31.028C242.177 31.316 242.321 31.568 242.621 31.748C243.173 32.108 244.229 32.288 245.717 32.288C247.205 32.288 248.261 32.108 248.813 31.748C249.125 31.568 249.257 31.316 249.257 31.028C249.257 30.74 249.125 30.5 248.813 30.284C248.261 29.948 247.205 29.768 245.717 29.768C244.229 29.768 243.173 29.948 242.621 30.284C242.321 30.5 242.177 30.74 242.177 31.028ZM253.805 25.76V28.088H261.497V28.724H259.649V31.472H261.953V32.084H252.485V31.472H254.849V28.724H253.073V25.124H260.633V22.796H253.073V22.148H261.365V25.76H253.805ZM258.917 28.724H255.581V31.472H258.917V28.724ZM264.16 24.344C264.16 23.54 264.496 22.904 265.012 22.484C265.492 22.088 266.152 21.884 266.908 21.884C267.652 21.884 268.312 22.088 268.792 22.484C269.32 22.904 269.644 23.54 269.644 24.344C269.644 25.148 269.32 25.796 268.792 26.216C268.312 26.612 267.652 26.828 266.908 26.828C266.152 26.828 265.492 26.612 265.012 26.216C264.496 25.796 264.16 25.148 264.16 24.344ZM264.88 24.344C264.88 24.932 265.096 25.4 265.456 25.712C265.816 26.024 266.332 26.192 266.908 26.192C267.472 26.192 267.988 26.024 268.348 25.712C268.708 25.4 268.924 24.932 268.924 24.344C268.924 23.756 268.708 23.288 268.348 22.988C267.988 22.664 267.472 22.496 266.908 22.496C266.332 22.496 265.816 22.664 265.456 22.988C265.096 23.288 264.88 23.756 264.88 24.344ZM272.86 26.972H272.128V21.944H272.86V26.972ZM265.732 30.656V32.108H273.004V32.708H265V30.056H272.128V28.592H265V27.992H272.86V30.656H265.732ZM33.5866 47.196C33.5866 48.048 33.4066 48.612 32.6746 49.416L29.2426 53.304H33.7306V53.952H28.2466V53.34L32.0746 49.008C32.6266 48.384 32.8426 47.856 32.8426 47.208C32.8426 46.02 32.1106 45.132 30.8506 45.132C29.5786 45.132 28.8586 46.032 28.8586 47.208V47.472H28.1146V47.196C28.1146 45.72 29.0746 44.472 30.8506 44.472C32.6386 44.472 33.5866 45.72 33.5866 47.196ZM41.1039 49.284C41.1039 51.444 40.8159 52.488 40.2279 53.232C39.7719 53.808 39.0639 54.108 38.1399 54.108C37.2159 54.108 36.5199 53.808 36.0519 53.232C35.4639 52.488 35.1759 51.444 35.1759 49.284C35.1759 47.148 35.4639 46.092 36.0519 45.36C36.5199 44.784 37.2159 44.472 38.1399 44.472C39.0639 44.472 39.7719 44.784 40.2279 45.36C40.8159 46.092 41.1039 47.148 41.1039 49.284ZM40.3599 49.284C40.3599 47.352 40.1439 46.392 39.6999 45.828C39.3519 45.384 38.8239 45.132 38.1399 45.132C37.4559 45.132 36.9279 45.384 36.5799 45.828C36.1359 46.392 35.9199 47.352 35.9199 49.284C35.9199 51.228 36.1359 52.188 36.5799 52.752C36.9279 53.196 37.4559 53.46 38.1399 53.46C38.8239 53.46 39.3519 53.196 39.6999 52.752C40.1439 52.188 40.3599 51.228 40.3599 49.284ZM48.1413 47.196C48.1413 48.048 47.9613 48.612 47.2293 49.416L43.7973 53.304H48.2853V53.952H42.8013V53.34L46.6293 49.008C47.1813 48.384 47.3973 47.856 47.3973 47.208C47.3973 46.02 46.6653 45.132 45.4053 45.132C44.1333 45.132 43.4133 46.032 43.4133 47.208V47.472H42.6693V47.196C42.6693 45.72 43.6293 44.472 45.4053 44.472C47.1933 44.472 48.1413 45.72 48.1413 47.196ZM55.4186 47.196C55.4186 48.048 55.2386 48.612 54.5066 49.416L51.0746 53.304H55.5626V53.952H50.0786V53.34L53.9066 49.008C54.4586 48.384 54.6746 47.856 54.6746 47.208C54.6746 46.02 53.9426 45.132 52.6826 45.132C51.4106 45.132 50.6906 46.032 50.6906 47.208V47.472H49.9466V47.196C49.9466 45.72 50.9066 44.472 52.6826 44.472C54.4706 44.472 55.4186 45.72 55.4186 47.196ZM61.3879 43.524L57.0679 55.188H56.3119L60.6319 43.524H61.3879ZM67.9633 49.284C67.9633 51.444 67.6753 52.488 67.0873 53.232C66.6313 53.808 65.9233 54.108 64.9993 54.108C64.0753 54.108 63.3793 53.808 62.9113 53.232C62.3233 52.488 62.0353 51.444 62.0353 49.284C62.0353 47.148 62.3233 46.092 62.9113 45.36C63.3793 44.784 64.0753 44.472 64.9993 44.472C65.9233 44.472 66.6313 44.784 67.0873 45.36C67.6753 46.092 67.9633 47.148 67.9633 49.284ZM67.2193 49.284C67.2193 47.352 67.0033 46.392 66.5593 45.828C66.2113 45.384 65.6833 45.132 64.9993 45.132C64.3153 45.132 63.7873 45.384 63.4393 45.828C62.9953 46.392 62.7793 47.352 62.7793 49.284C62.7793 51.228 62.9953 52.188 63.4393 52.752C63.7873 53.196 64.3153 53.46 64.9993 53.46C65.6833 53.46 66.2113 53.196 66.5593 52.752C67.0033 52.188 67.2193 51.228 67.2193 49.284ZM74.9406 46.728H74.1606C74.0286 45.636 73.3206 45.132 72.3246 45.132C70.8006 45.132 70.2726 46.284 70.2246 49.092C70.5606 48.384 71.3406 47.904 72.3966 47.904C74.1006 47.904 75.1926 49.092 75.1926 51.012C75.1926 52.932 74.0406 54.108 72.3366 54.108C71.1366 54.108 70.2246 53.58 69.7686 52.44C69.5166 51.828 69.4566 50.988 69.4566 50.004V49.8C69.4566 45.828 70.3086 44.472 72.3486 44.472C73.7766 44.472 74.7606 45.228 74.9406 46.728ZM72.3366 53.448C73.5966 53.448 74.4486 52.56 74.4486 51.012C74.4486 49.476 73.5966 48.564 72.3366 48.564C71.0766 48.564 70.2246 49.476 70.2246 51.012C70.2246 52.56 71.0766 53.448 72.3366 53.448ZM80.97 43.524L76.65 55.188H75.894L80.214 43.524H80.97ZM87.5453 49.284C87.5453 51.444 87.2573 52.488 86.6693 53.232C86.2133 53.808 85.5053 54.108 84.5813 54.108C83.6573 54.108 82.9613 53.808 82.4933 53.232C81.9053 52.488 81.6173 51.444 81.6173 49.284C81.6173 47.148 81.9053 46.092 82.4933 45.36C82.9613 44.784 83.6573 44.472 84.5813 44.472C85.5053 44.472 86.2133 44.784 86.6693 45.36C87.2573 46.092 87.5453 47.148 87.5453 49.284ZM86.8013 49.284C86.8013 47.352 86.5853 46.392 86.1413 45.828C85.7933 45.384 85.2653 45.132 84.5813 45.132C83.8973 45.132 83.3693 45.384 83.0213 45.828C82.5773 46.392 82.3613 47.352 82.3613 49.284C82.3613 51.228 82.5773 52.188 83.0213 52.752C83.3693 53.196 83.8973 53.46 84.5813 53.46C85.2653 53.46 85.7933 53.196 86.1413 52.752C86.5853 52.188 86.8013 51.228 86.8013 49.284ZM93.9707 51.396C93.9707 50.148 93.1907 49.32 91.9067 49.32H90.9947V48.672H91.9547C93.1067 48.672 93.6947 47.832 93.6947 46.896C93.6947 45.864 92.9507 45.132 91.8347 45.132C90.6827 45.132 89.9747 45.864 89.9747 46.896V47.064H89.2307V46.848C89.2307 45.516 90.2147 44.472 91.8347 44.472C93.4547 44.472 94.4387 45.516 94.4387 46.848C94.4387 47.928 93.8987 48.732 92.9387 48.996C93.9827 49.236 94.7147 50.064 94.7147 51.408C94.7147 53.076 93.5507 54.108 91.8347 54.108C90.1187 54.108 88.9427 53.028 88.9427 51.312V51.228H89.6987V51.288C89.6987 52.644 90.5987 53.46 91.8347 53.46C93.0707 53.46 93.9707 52.656 93.9707 51.396ZM212.86 47.196C212.86 48.048 212.68 48.612 211.948 49.416L208.516 53.304H213.004V53.952H207.52V53.34L211.348 49.008C211.9 48.384 212.116 47.856 212.116 47.208C212.116 46.02 211.384 45.132 210.124 45.132C208.852 45.132 208.132 46.032 208.132 47.208V47.472H207.388V47.196C207.388 45.72 208.348 44.472 210.124 44.472C211.912 44.472 212.86 45.72 212.86 47.196ZM220.377 49.284C220.377 51.444 220.089 52.488 219.501 53.232C219.045 53.808 218.337 54.108 217.413 54.108C216.489 54.108 215.793 53.808 215.325 53.232C214.737 52.488 214.449 51.444 214.449 49.284C214.449 47.148 214.737 46.092 215.325 45.36C215.793 44.784 216.489 44.472 217.413 44.472C218.337 44.472 219.045 44.784 219.501 45.36C220.089 46.092 220.377 47.148 220.377 49.284ZM219.633 49.284C219.633 47.352 219.417 46.392 218.973 45.828C218.625 45.384 218.097 45.132 217.413 45.132C216.729 45.132 216.201 45.384 215.853 45.828C215.409 46.392 215.193 47.352 215.193 49.284C215.193 51.228 215.409 52.188 215.853 52.752C216.201 53.196 216.729 53.46 217.413 53.46C218.097 53.46 218.625 53.196 218.973 52.752C219.417 52.188 219.633 51.228 219.633 49.284ZM227.415 47.196C227.415 48.048 227.235 48.612 226.503 49.416L223.071 53.304H227.559V53.952H222.075V53.34L225.903 49.008C226.455 48.384 226.671 47.856 226.671 47.208C226.671 46.02 225.939 45.132 224.679 45.132C223.407 45.132 222.687 46.032 222.687 47.208V47.472H221.943V47.196C221.943 45.72 222.903 44.472 224.679 44.472C226.467 44.472 227.415 45.72 227.415 47.196ZM229.856 51.132H233.048V45.888L229.856 51.132ZM235.04 51.132V51.792H233.792V53.952H233.048V51.792H229.016V51.132L232.988 44.628H233.792V51.132H235.04ZM240.661 43.524L236.341 55.188H235.585L239.905 43.524H240.661ZM247.237 49.284C247.237 51.444 246.949 52.488 246.361 53.232C245.905 53.808 245.197 54.108 244.273 54.108C243.349 54.108 242.653 53.808 242.185 53.232C241.597 52.488 241.309 51.444 241.309 49.284C241.309 47.148 241.597 46.092 242.185 45.36C242.653 44.784 243.349 44.472 244.273 44.472C245.197 44.472 245.905 44.784 246.361 45.36C246.949 46.092 247.237 47.148 247.237 49.284ZM246.493 49.284C246.493 47.352 246.277 46.392 245.833 45.828C245.485 45.384 244.957 45.132 244.273 45.132C243.589 45.132 243.061 45.384 242.713 45.828C242.269 46.392 242.053 47.352 242.053 49.284C242.053 51.228 242.269 52.188 242.713 52.752C243.061 53.196 243.589 53.46 244.273 53.46C244.957 53.46 245.485 53.196 245.833 52.752C246.277 52.188 246.493 51.228 246.493 49.284ZM248.814 45.288V44.628H254.262V45.24L250.938 53.952H250.146L253.506 45.288H248.814ZM260.243 43.524L255.923 55.188H255.167L259.487 43.524H260.243ZM266.819 49.284C266.819 51.444 266.531 52.488 265.943 53.232C265.487 53.808 264.779 54.108 263.855 54.108C262.931 54.108 262.235 53.808 261.767 53.232C261.179 52.488 260.891 51.444 260.891 49.284C260.891 47.148 261.179 46.092 261.767 45.36C262.235 44.784 262.931 44.472 263.855 44.472C264.779 44.472 265.487 44.784 265.943 45.36C266.531 46.092 266.819 47.148 266.819 49.284ZM266.075 49.284C266.075 47.352 265.859 46.392 265.415 45.828C265.067 45.384 264.539 45.132 263.855 45.132C263.171 45.132 262.643 45.384 262.295 45.828C261.851 46.392 261.635 47.352 261.635 49.284C261.635 51.228 261.851 52.188 262.295 52.752C262.643 53.196 263.171 53.46 263.855 53.46C264.539 53.46 265.067 53.196 265.415 52.752C265.859 52.188 266.075 51.228 266.075 49.284ZM273.244 51.396C273.244 50.148 272.464 49.32 271.18 49.32H270.268V48.672H271.228C272.38 48.672 272.968 47.832 272.968 46.896C272.968 45.864 272.224 45.132 271.108 45.132C269.956 45.132 269.248 45.864 269.248 46.896V47.064H268.504V46.848C268.504 45.516 269.488 44.472 271.108 44.472C272.728 44.472 273.712 45.516 273.712 46.848C273.712 47.928 273.172 48.732 272.212 48.996C273.256 49.236 273.988 50.064 273.988 51.408C273.988 53.076 272.824 54.108 271.108 54.108C269.392 54.108 268.216 53.028 268.216 51.312V51.228H268.972V51.288C268.972 52.644 269.872 53.46 271.108 53.46C272.344 53.46 273.244 52.656 273.244 51.396Z" fill="#0A0A0A"/>
</g>
<path d="M49.396 81.862H50.236V83.514H53.218V84.242H46.428V83.514H49.396V81.862ZM47.66 88.19C47.66 88.736 47.87 89.212 48.248 89.576C48.64 89.94 49.186 90.164 49.83 90.164C50.488 90.164 51.048 89.94 51.44 89.576C51.804 89.212 52.014 88.736 52.014 88.19C52.014 87.63 51.804 87.154 51.44 86.79C51.048 86.412 50.488 86.202 49.83 86.202C49.186 86.202 48.64 86.412 48.248 86.79C47.87 87.154 47.66 87.63 47.66 88.19ZM46.806 88.19C46.806 87.392 47.1 86.734 47.646 86.258C48.164 85.754 48.934 85.474 49.83 85.474C50.726 85.474 51.51 85.754 52.028 86.258C52.56 86.734 52.868 87.392 52.868 88.19C52.868 88.974 52.56 89.632 52.028 90.122C51.594 90.528 50.964 90.794 50.25 90.864V93.202H52.196C53.512 93.202 54.632 92.908 55.332 92.32V82.254H56.186V87.588H58.258V88.33H56.186V94.672H55.332V93.048C54.646 93.65 53.456 93.958 52.084 93.958H46.232V93.202H49.396V90.864C48.682 90.794 48.08 90.528 47.646 90.122C47.1 89.632 46.806 88.974 46.806 88.19ZM96.4005 93.944H95.5325V83.99L92.7045 85.25V84.382L95.6305 83.066H96.4005V93.944ZM106.011 90.962C106.011 89.506 105.101 88.54 103.603 88.54H102.539V87.784H103.659C105.003 87.784 105.689 86.804 105.689 85.712C105.689 84.508 104.821 83.654 103.519 83.654C102.175 83.654 101.349 84.508 101.349 85.712V85.908H100.481V85.656C100.481 84.102 101.629 82.884 103.519 82.884C105.409 82.884 106.557 84.102 106.557 85.656C106.557 86.916 105.927 87.854 104.807 88.162C106.025 88.442 106.879 89.408 106.879 90.976C106.879 92.922 105.521 94.126 103.519 94.126C101.517 94.126 100.145 92.866 100.145 90.864V90.766H101.027V90.836C101.027 92.418 102.077 93.37 103.519 93.37C104.961 93.37 106.011 92.432 106.011 90.962ZM110.427 92.446V93.944H109.391V92.446H110.427ZM110.427 86.174V87.686H109.391V86.174H110.427ZM119.733 88.498C119.733 91.018 119.397 92.236 118.711 93.104C118.179 93.776 117.353 94.126 116.275 94.126C115.197 94.126 114.385 93.776 113.839 93.104C113.153 92.236 112.817 91.018 112.817 88.498C112.817 86.006 113.153 84.774 113.839 83.92C114.385 83.248 115.197 82.884 116.275 82.884C117.353 82.884 118.179 83.248 118.711 83.92C119.397 84.774 119.733 86.006 119.733 88.498ZM118.865 88.498C118.865 86.244 118.613 85.124 118.095 84.466C117.689 83.948 117.073 83.654 116.275 83.654C115.477 83.654 114.861 83.948 114.455 84.466C113.937 85.124 113.685 86.244 113.685 88.498C113.685 90.766 113.937 91.886 114.455 92.544C114.861 93.062 115.477 93.37 116.275 93.37C117.073 93.37 117.689 93.062 118.095 92.544C118.613 91.886 118.865 90.766 118.865 88.498ZM128.223 88.498C128.223 91.018 127.887 92.236 127.201 93.104C126.669 93.776 125.843 94.126 124.765 94.126C123.687 94.126 122.875 93.776 122.329 93.104C121.643 92.236 121.307 91.018 121.307 88.498C121.307 86.006 121.643 84.774 122.329 83.92C122.875 83.248 123.687 82.884 124.765 82.884C125.843 82.884 126.669 83.248 127.201 83.92C127.887 84.774 128.223 86.006 128.223 88.498ZM127.355 88.498C127.355 86.244 127.103 85.124 126.585 84.466C126.179 83.948 125.563 83.654 124.765 83.654C123.967 83.654 123.351 83.948 122.945 84.466C122.427 85.124 122.175 86.244 122.175 88.498C122.175 90.766 122.427 91.886 122.945 92.544C123.351 93.062 123.967 93.37 124.765 93.37C125.563 93.37 126.179 93.062 126.585 92.544C127.103 91.886 127.355 90.766 127.355 88.498ZM138.437 90.066C136.841 90.066 136.813 88.414 135.791 88.414C135.203 88.414 134.881 88.904 134.867 89.968H134.069C134.069 88.526 134.671 87.686 135.777 87.686C137.373 87.686 137.387 89.338 138.409 89.338C138.997 89.338 139.319 88.848 139.333 87.77H140.145C140.131 89.226 139.543 90.066 138.437 90.066ZM150.787 93.944H149.919V83.99L147.091 85.25V84.382L150.017 83.066H150.787V93.944ZM154.811 91.494H155.721C155.875 92.768 156.701 93.356 157.863 93.356C159.641 93.356 160.271 92.026 160.313 88.736C159.921 89.562 159.025 90.122 157.779 90.122C155.791 90.122 154.517 88.736 154.517 86.496C154.517 84.256 155.875 82.884 157.863 82.884C159.249 82.884 160.313 83.5 160.845 84.83C161.139 85.558 161.209 86.524 161.209 87.686V87.924C161.209 92.572 160.187 94.126 157.849 94.126C156.169 94.126 155.021 93.244 154.811 91.494ZM157.863 83.654C156.379 83.654 155.399 84.704 155.399 86.496C155.399 88.302 156.379 89.352 157.863 89.352C159.333 89.352 160.313 88.302 160.313 86.496C160.313 84.704 159.333 83.654 157.863 83.654ZM164.814 92.446V93.944H163.778V92.446H164.814ZM164.814 86.174V87.686H163.778V86.174H164.814ZM174.12 88.498C174.12 91.018 173.784 92.236 173.098 93.104C172.566 93.776 171.74 94.126 170.662 94.126C169.584 94.126 168.772 93.776 168.226 93.104C167.54 92.236 167.204 91.018 167.204 88.498C167.204 86.006 167.54 84.774 168.226 83.92C168.772 83.248 169.584 82.884 170.662 82.884C171.74 82.884 172.566 83.248 173.098 83.92C173.784 84.774 174.12 86.006 174.12 88.498ZM173.252 88.498C173.252 86.244 173 85.124 172.482 84.466C172.076 83.948 171.46 83.654 170.662 83.654C169.864 83.654 169.248 83.948 168.842 84.466C168.324 85.124 168.072 86.244 168.072 88.498C168.072 90.766 168.324 91.886 168.842 92.544C169.248 93.062 169.864 93.37 170.662 93.37C171.46 93.37 172.076 93.062 172.482 92.544C173 91.886 173.252 90.766 173.252 88.498ZM182.61 88.498C182.61 91.018 182.274 92.236 181.588 93.104C181.056 93.776 180.23 94.126 179.152 94.126C178.074 94.126 177.262 93.776 176.716 93.104C176.03 92.236 175.694 91.018 175.694 88.498C175.694 86.006 176.03 84.774 176.716 83.92C177.262 83.248 178.074 82.884 179.152 82.884C180.23 82.884 181.056 83.248 181.588 83.92C182.274 84.774 182.61 86.006 182.61 88.498ZM181.742 88.498C181.742 86.244 181.49 85.124 180.972 84.466C180.566 83.948 179.95 83.654 179.152 83.654C178.354 83.654 177.738 83.948 177.332 84.466C176.814 85.124 176.562 86.244 176.562 88.498C176.562 90.766 176.814 91.886 177.332 92.544C177.738 93.062 178.354 93.37 179.152 93.37C179.95 93.37 180.566 93.062 180.972 92.544C181.49 91.886 181.742 90.766 181.742 88.498ZM208.998 88.568C208.998 82.618 209.978 81.526 212.162 81.526V82.268C210.524 82.268 209.852 83.206 209.852 88.568C209.852 93.93 210.524 94.868 212.162 94.868V95.61C209.978 95.61 208.998 94.532 208.998 88.568ZM219.844 85.516H218.934C218.78 84.242 217.954 83.654 216.792 83.654C215.014 83.654 214.398 84.998 214.342 88.274C214.734 87.448 215.644 86.888 216.876 86.888C218.864 86.888 220.138 88.274 220.138 90.514C220.138 92.754 218.794 94.126 216.806 94.126C215.406 94.126 214.342 93.51 213.81 92.18C213.516 91.466 213.446 90.486 213.446 89.338V89.1C213.446 84.466 214.44 82.884 216.82 82.884C218.486 82.884 219.634 83.766 219.844 85.516ZM216.806 93.356C218.276 93.356 219.27 92.32 219.27 90.514C219.27 88.722 218.276 87.658 216.806 87.658C215.336 87.658 214.342 88.722 214.342 90.514C214.342 92.32 215.336 93.356 216.806 93.356ZM225.632 89.926C225.226 91.69 223.784 93.16 222.048 93.818V93.034C223.644 92.306 225.198 90.822 225.198 87.406V82.422H226.052V87.406C226.052 90.822 227.634 92.25 229.216 93.034V93.818C227.508 93.118 226.038 91.69 225.632 89.926ZM231.596 94.658V82.268H232.45V94.658H231.596ZM240.766 83.192H235.796V82.436H241.62V82.996C241.62 87.014 239.198 89.17 235.488 89.604V88.862C238.694 88.47 240.766 86.496 240.766 83.192ZM245.596 82.268V85.88H247.556V86.622H245.596V90.892H244.742V82.268H245.596ZM237.406 90.808V94H245.834V94.742H236.552V90.808H237.406ZM251.363 88.568C251.363 94.532 250.383 95.61 248.199 95.61V94.868C249.837 94.868 250.509 93.93 250.509 88.568C250.509 83.206 249.837 82.268 248.199 82.268V81.526C250.383 81.526 251.363 82.618 251.363 88.568ZM56.438 138.58H52.126V140.68H57.306V141.408H46.12V140.68H51.272V138.58H46.988V134.436H56.438V138.58ZM55.584 137.866V135.164H47.842V137.866H55.584ZM55.584 146.896V144.096H46.89V143.34H56.438V146.896H55.584ZM98.5145 140.498C98.5145 143.018 98.1785 144.236 97.4925 145.104C96.9605 145.776 96.1345 146.126 95.0565 146.126C93.9785 146.126 93.1665 145.776 92.6205 145.104C91.9345 144.236 91.5985 143.018 91.5985 140.498C91.5985 138.006 91.9345 136.774 92.6205 135.92C93.1665 135.248 93.9785 134.884 95.0565 134.884C96.1345 134.884 96.9605 135.248 97.4925 135.92C98.1785 136.774 98.5145 138.006 98.5145 140.498ZM97.6465 140.498C97.6465 138.244 97.3945 137.124 96.8765 136.466C96.4705 135.948 95.8545 135.654 95.0565 135.654C94.2585 135.654 93.6425 135.948 93.2365 136.466C92.7185 137.124 92.4665 138.244 92.4665 140.498C92.4665 142.766 92.7185 143.886 93.2365 144.544C93.6425 145.062 94.2585 145.37 95.0565 145.37C95.8545 145.37 96.4705 145.062 96.8765 144.544C97.3945 143.886 97.6465 142.766 97.6465 140.498ZM103.547 146.126C101.447 146.126 100.033 144.978 100.033 143.032C100.033 141.576 100.845 140.554 102.175 140.204C101.083 139.854 100.355 138.93 100.355 137.684C100.355 136.032 101.573 134.884 103.547 134.884C105.521 134.884 106.739 136.032 106.739 137.684C106.739 138.93 106.011 139.854 104.919 140.204C106.249 140.554 107.075 141.576 107.075 143.032C107.075 144.978 105.647 146.126 103.547 146.126ZM103.547 139.812C104.919 139.812 105.871 139.014 105.871 137.74C105.871 136.466 104.919 135.654 103.547 135.654C102.175 135.654 101.223 136.466 101.223 137.74C101.223 139.014 102.175 139.812 103.547 139.812ZM106.193 142.976C106.193 141.464 105.101 140.568 103.547 140.568C102.007 140.568 100.901 141.464 100.901 142.976C100.901 144.488 102.007 145.37 103.547 145.37C105.101 145.37 106.193 144.488 106.193 142.976ZM110.427 144.446V145.944H109.391V144.446H110.427ZM110.427 138.174V139.686H109.391V138.174H110.427ZM119.733 140.498C119.733 143.018 119.397 144.236 118.711 145.104C118.179 145.776 117.353 146.126 116.275 146.126C115.197 146.126 114.385 145.776 113.839 145.104C113.153 144.236 112.817 143.018 112.817 140.498C112.817 138.006 113.153 136.774 113.839 135.92C114.385 135.248 115.197 134.884 116.275 134.884C117.353 134.884 118.179 135.248 118.711 135.92C119.397 136.774 119.733 138.006 119.733 140.498ZM118.865 140.498C118.865 138.244 118.613 137.124 118.095 136.466C117.689 135.948 117.073 135.654 116.275 135.654C115.477 135.654 114.861 135.948 114.455 136.466C113.937 137.124 113.685 138.244 113.685 140.498C113.685 142.766 113.937 143.886 114.455 144.544C114.861 145.062 115.477 145.37 116.275 145.37C117.073 145.37 117.689 145.062 118.095 144.544C118.613 143.886 118.865 142.766 118.865 140.498ZM128.223 140.498C128.223 143.018 127.887 144.236 127.201 145.104C126.669 145.776 125.843 146.126 124.765 146.126C123.687 146.126 122.875 145.776 122.329 145.104C121.643 144.236 121.307 143.018 121.307 140.498C121.307 138.006 121.643 136.774 122.329 135.92C122.875 135.248 123.687 134.884 124.765 134.884C125.843 134.884 126.669 135.248 127.201 135.92C127.887 136.774 128.223 138.006 128.223 140.498ZM127.355 140.498C127.355 138.244 127.103 137.124 126.585 136.466C126.179 135.948 125.563 135.654 124.765 135.654C123.967 135.654 123.351 135.948 122.945 136.466C122.427 137.124 122.175 138.244 122.175 140.498C122.175 142.766 122.427 143.886 122.945 144.544C123.351 145.062 123.967 145.37 124.765 145.37C125.563 145.37 126.179 145.062 126.585 144.544C127.103 143.886 127.355 142.766 127.355 140.498ZM138.437 142.066C136.841 142.066 136.813 140.414 135.791 140.414C135.203 140.414 134.881 140.904 134.867 141.968H134.069C134.069 140.526 134.671 139.686 135.777 139.686C137.373 139.686 137.387 141.338 138.409 141.338C138.997 141.338 139.319 140.848 139.333 139.77H140.145C140.131 141.226 139.543 142.066 138.437 142.066ZM150.787 145.944H149.919V135.99L147.091 137.25V136.382L150.017 135.066H150.787V145.944ZM155.469 142.654H159.193V136.536L155.469 142.654ZM161.517 142.654V143.424H160.061V145.944H159.193V143.424H154.489V142.654L159.123 135.066H160.061V142.654H161.517ZM164.814 144.446V145.944H163.778V144.446H164.814ZM164.814 138.174V139.686H163.778V138.174H164.814ZM174.12 140.498C174.12 143.018 173.784 144.236 173.098 145.104C172.566 145.776 171.74 146.126 170.662 146.126C169.584 146.126 168.772 145.776 168.226 145.104C167.54 144.236 167.204 143.018 167.204 140.498C167.204 138.006 167.54 136.774 168.226 135.92C168.772 135.248 169.584 134.884 170.662 134.884C171.74 134.884 172.566 135.248 173.098 135.92C173.784 136.774 174.12 138.006 174.12 140.498ZM173.252 140.498C173.252 138.244 173 137.124 172.482 136.466C172.076 135.948 171.46 135.654 170.662 135.654C169.864 135.654 169.248 135.948 168.842 136.466C168.324 137.124 168.072 138.244 168.072 140.498C168.072 142.766 168.324 143.886 168.842 144.544C169.248 145.062 169.864 145.37 170.662 145.37C171.46 145.37 172.076 145.062 172.482 144.544C173 143.886 173.252 142.766 173.252 140.498ZM182.61 140.498C182.61 143.018 182.274 144.236 181.588 145.104C181.056 145.776 180.23 146.126 179.152 146.126C178.074 146.126 177.262 145.776 176.716 145.104C176.03 144.236 175.694 143.018 175.694 140.498C175.694 138.006 176.03 136.774 176.716 135.92C177.262 135.248 178.074 134.884 179.152 134.884C180.23 134.884 181.056 135.248 181.588 135.92C182.274 136.774 182.61 138.006 182.61 140.498ZM181.742 140.498C181.742 138.244 181.49 137.124 180.972 136.466C180.566 135.948 179.95 135.654 179.152 135.654C178.354 135.654 177.738 135.948 177.332 136.466C176.814 137.124 176.562 138.244 176.562 140.498C176.562 142.766 176.814 143.886 177.332 144.544C177.738 145.062 178.354 145.37 179.152 145.37C179.95 145.37 180.566 145.062 180.972 144.544C181.49 143.886 181.742 142.766 181.742 140.498ZM208.998 140.568C208.998 134.618 209.978 133.526 212.162 133.526V134.268C210.524 134.268 209.852 135.206 209.852 140.568C209.852 145.93 210.524 146.868 212.162 146.868V147.61C209.978 147.61 208.998 146.532 208.998 140.568ZM219.844 137.516H218.934C218.78 136.242 217.954 135.654 216.792 135.654C215.014 135.654 214.398 136.998 214.342 140.274C214.734 139.448 215.644 138.888 216.876 138.888C218.864 138.888 220.138 140.274 220.138 142.514C220.138 144.754 218.794 146.126 216.806 146.126C215.406 146.126 214.342 145.51 213.81 144.18C213.516 143.466 213.446 142.486 213.446 141.338V141.1C213.446 136.466 214.44 134.884 216.82 134.884C218.486 134.884 219.634 135.766 219.844 137.516ZM216.806 145.356C218.276 145.356 219.27 144.32 219.27 142.514C219.27 140.722 218.276 139.658 216.806 139.658C215.336 139.658 214.342 140.722 214.342 142.514C214.342 144.32 215.336 145.356 216.806 145.356ZM225.632 141.926C225.226 143.69 223.784 145.16 222.048 145.818V145.034C223.644 144.306 225.198 142.822 225.198 139.406V134.422H226.052V139.406C226.052 142.822 227.634 144.25 229.216 145.034V145.818C227.508 145.118 226.038 143.69 225.632 141.926ZM231.596 146.658V134.268H232.45V146.658H231.596ZM240.766 135.192H235.796V134.436H241.62V134.996C241.62 139.014 239.198 141.17 235.488 141.604V140.862C238.694 140.47 240.766 138.496 240.766 135.192ZM245.596 134.268V137.88H247.556V138.622H245.596V142.892H244.742V134.268H245.596ZM237.406 142.808V146H245.834V146.742H236.552V142.808H237.406ZM251.363 140.568C251.363 146.532 250.383 147.61 248.199 147.61V146.868C249.837 146.868 250.509 145.93 250.509 140.568C250.509 135.206 249.837 134.268 248.199 134.268V133.526C250.383 133.526 251.363 134.618 251.363 140.568ZM56.55 187.262H47.73V189.978H56.382V190.72H47.73V193.436H56.704V194.178H52.168V197.384H57.236V198.098H46.19V197.384H51.314V194.178H46.876V186.506H56.55V187.262ZM96.4005 197.944H95.5325V187.99L92.7045 189.25V188.382L95.6305 187.066H96.4005V197.944ZM107.005 192.498C107.005 195.018 106.669 196.236 105.983 197.104C105.451 197.776 104.625 198.126 103.547 198.126C102.469 198.126 101.657 197.776 101.111 197.104C100.425 196.236 100.089 195.018 100.089 192.498C100.089 190.006 100.425 188.774 101.111 187.92C101.657 187.248 102.469 186.884 103.547 186.884C104.625 186.884 105.451 187.248 105.983 187.92C106.669 188.774 107.005 190.006 107.005 192.498ZM106.137 192.498C106.137 190.244 105.885 189.124 105.367 188.466C104.961 187.948 104.345 187.654 103.547 187.654C102.749 187.654 102.133 187.948 101.727 188.466C101.209 189.124 100.957 190.244 100.957 192.498C100.957 194.766 101.209 195.886 101.727 196.544C102.133 197.062 102.749 197.37 103.547 197.37C104.345 197.37 104.961 197.062 105.367 196.544C105.885 195.886 106.137 194.766 106.137 192.498ZM110.427 196.446V197.944H109.391V196.446H110.427ZM110.427 190.174V191.686H109.391V190.174H110.427ZM119.733 192.498C119.733 195.018 119.397 196.236 118.711 197.104C118.179 197.776 117.353 198.126 116.275 198.126C115.197 198.126 114.385 197.776 113.839 197.104C113.153 196.236 112.817 195.018 112.817 192.498C112.817 190.006 113.153 188.774 113.839 187.92C114.385 187.248 115.197 186.884 116.275 186.884C117.353 186.884 118.179 187.248 118.711 187.92C119.397 188.774 119.733 190.006 119.733 192.498ZM118.865 192.498C118.865 190.244 118.613 189.124 118.095 188.466C117.689 187.948 117.073 187.654 116.275 187.654C115.477 187.654 114.861 187.948 114.455 188.466C113.937 189.124 113.685 190.244 113.685 192.498C113.685 194.766 113.937 195.886 114.455 196.544C114.861 197.062 115.477 197.37 116.275 197.37C117.073 197.37 117.689 197.062 118.095 196.544C118.613 195.886 118.865 194.766 118.865 192.498ZM128.223 192.498C128.223 195.018 127.887 196.236 127.201 197.104C126.669 197.776 125.843 198.126 124.765 198.126C123.687 198.126 122.875 197.776 122.329 197.104C121.643 196.236 121.307 195.018 121.307 192.498C121.307 190.006 121.643 188.774 122.329 187.92C122.875 187.248 123.687 186.884 124.765 186.884C125.843 186.884 126.669 187.248 127.201 187.92C127.887 188.774 128.223 190.006 128.223 192.498ZM127.355 192.498C127.355 190.244 127.103 189.124 126.585 188.466C126.179 187.948 125.563 187.654 124.765 187.654C123.967 187.654 123.351 187.948 122.945 188.466C122.427 189.124 122.175 190.244 122.175 192.498C122.175 194.766 122.427 195.886 122.945 196.544C123.351 197.062 123.967 197.37 124.765 197.37C125.563 197.37 126.179 197.062 126.585 196.544C127.103 195.886 127.355 194.766 127.355 192.498ZM138.437 194.066C136.841 194.066 136.813 192.414 135.791 192.414C135.203 192.414 134.881 192.904 134.867 193.968H134.069C134.069 192.526 134.671 191.686 135.777 191.686C137.373 191.686 137.387 193.338 138.409 193.338C138.997 193.338 139.319 192.848 139.333 191.77H140.145C140.131 193.226 139.543 194.066 138.437 194.066ZM150.787 197.944H149.919V187.99L147.091 189.25V188.382L150.017 187.066H150.787V197.944ZM154.741 187.836V187.066H161.097V187.78L157.219 197.944H156.295L160.215 187.836H154.741ZM164.814 196.446V197.944H163.778V196.446H164.814ZM164.814 190.174V191.686H163.778V190.174H164.814ZM174.12 192.498C174.12 195.018 173.784 196.236 173.098 197.104C172.566 197.776 171.74 198.126 170.662 198.126C169.584 198.126 168.772 197.776 168.226 197.104C167.54 196.236 167.204 195.018 167.204 192.498C167.204 190.006 167.54 188.774 168.226 187.92C168.772 187.248 169.584 186.884 170.662 186.884C171.74 186.884 172.566 187.248 173.098 187.92C173.784 188.774 174.12 190.006 174.12 192.498ZM173.252 192.498C173.252 190.244 173 189.124 172.482 188.466C172.076 187.948 171.46 187.654 170.662 187.654C169.864 187.654 169.248 187.948 168.842 188.466C168.324 189.124 168.072 190.244 168.072 192.498C168.072 194.766 168.324 195.886 168.842 196.544C169.248 197.062 169.864 197.37 170.662 197.37C171.46 197.37 172.076 197.062 172.482 196.544C173 195.886 173.252 194.766 173.252 192.498ZM182.61 192.498C182.61 195.018 182.274 196.236 181.588 197.104C181.056 197.776 180.23 198.126 179.152 198.126C178.074 198.126 177.262 197.776 176.716 197.104C176.03 196.236 175.694 195.018 175.694 192.498C175.694 190.006 176.03 188.774 176.716 187.92C177.262 187.248 178.074 186.884 179.152 186.884C180.23 186.884 181.056 187.248 181.588 187.92C182.274 188.774 182.61 190.006 182.61 192.498ZM181.742 192.498C181.742 190.244 181.49 189.124 180.972 188.466C180.566 187.948 179.95 187.654 179.152 187.654C178.354 187.654 177.738 187.948 177.332 188.466C176.814 189.124 176.562 190.244 176.562 192.498C176.562 194.766 176.814 195.886 177.332 196.544C177.738 197.062 178.354 197.37 179.152 197.37C179.95 197.37 180.566 197.062 180.972 196.544C181.49 195.886 181.742 194.766 181.742 192.498ZM213.045 192.568C213.045 186.618 214.025 185.526 216.209 185.526V186.268C214.571 186.268 213.899 187.206 213.899 192.568C213.899 197.93 214.571 198.868 216.209 198.868V199.61C214.025 199.61 213.045 198.532 213.045 192.568ZM217.591 187.836V187.066H223.947V187.78L220.069 197.944H219.145L223.065 187.836H217.591ZM229.679 193.926C229.273 195.69 227.831 197.16 226.095 197.818V197.034C227.691 196.306 229.245 194.822 229.245 191.406V186.422H230.099V191.406C230.099 194.822 231.681 196.25 233.263 197.034V197.818C231.555 197.118 230.085 195.69 229.679 193.926ZM235.643 198.658V186.268H236.497V198.658H235.643ZM244.813 187.192H239.843V186.436H245.667V186.996C245.667 191.014 243.245 193.17 239.535 193.604V192.862C242.741 192.47 244.813 190.496 244.813 187.192ZM249.643 186.268V189.88H251.603V190.622H249.643V194.892H248.789V186.268H249.643ZM241.453 194.808V198H249.881V198.742H240.599V194.808H241.453ZM255.41 192.568C255.41 198.532 254.43 199.61 252.246 199.61V198.868C253.884 198.868 254.556 197.93 254.556 192.568C254.556 187.206 253.884 186.268 252.246 186.268V185.526C254.43 185.526 255.41 186.618 255.41 192.568Z" fill="black"/>
</svg>
