<svg width="181" height="25" viewBox="0 0 181 25" fill="none" xmlns="http://www.w3.org/2000/svg">
<rect x="0.209473" y="0.5" width="180" height="24" rx="12" fill="#635BFF" fill-opacity="0.21"/>
<path d="M92.5234 17.5V15.8381L96.4066 12.2425C96.7368 11.9229 97.0138 11.6353 97.2375 11.3796C97.4648 11.1239 97.637 10.8736 97.7542 10.6286C97.8714 10.38 97.93 10.1119 97.93 9.82422C97.93 9.50462 97.8572 9.2294 97.7116 8.99858C97.566 8.7642 97.3671 8.58487 97.115 8.46058C96.8629 8.33274 96.577 8.26882 96.2574 8.26882C95.9236 8.26882 95.6324 8.33629 95.3838 8.47124C95.1353 8.60618 94.9435 8.79972 94.8085 9.05185C94.6736 9.30398 94.6061 9.60405 94.6061 9.95206H92.4169C92.4169 9.23828 92.5784 8.61861 92.9016 8.09304C93.2247 7.56747 93.6775 7.16087 94.2599 6.87322C94.8423 6.58558 95.5134 6.44176 96.2734 6.44176C97.0546 6.44176 97.7347 6.58026 98.3135 6.85724C98.8959 7.13068 99.3487 7.51065 99.6718 7.99716C99.995 8.48366 100.157 9.04119 100.157 9.66974C100.157 10.0817 100.075 10.4883 99.9115 10.8896C99.7517 11.2908 99.4659 11.7365 99.0539 12.2266C98.642 12.7131 98.0614 13.2972 97.3121 13.979L95.7194 15.5398V15.6143H100.3V17.5H92.5234ZM106.041 17.6491C105.221 17.6491 104.491 17.516 103.852 17.2496C103.216 16.9798 102.717 16.6122 102.355 16.147C101.993 15.6818 101.812 15.1545 101.812 14.565C101.812 14.1104 101.915 13.6932 102.121 13.3132C102.33 12.9297 102.614 12.6119 102.973 12.3597C103.332 12.104 103.733 11.9407 104.177 11.8697V11.7951C103.595 11.6779 103.122 11.3956 102.76 10.9482C102.398 10.4972 102.217 9.97337 102.217 9.37678C102.217 8.81214 102.382 8.30966 102.712 7.86932C103.042 7.42543 103.495 7.07741 104.07 6.82528C104.649 6.5696 105.306 6.44176 106.041 6.44176C106.776 6.44176 107.432 6.5696 108.007 6.82528C108.586 7.08097 109.04 7.43075 109.37 7.87464C109.701 8.31499 109.868 8.8157 109.871 9.37678C109.868 9.97692 109.683 10.5007 109.317 10.9482C108.951 11.3956 108.483 11.6779 107.911 11.7951V11.8697C108.348 11.9407 108.744 12.104 109.099 12.3597C109.457 12.6119 109.742 12.9297 109.951 13.3132C110.164 13.6932 110.272 14.1104 110.276 14.565C110.272 15.1545 110.09 15.6818 109.727 16.147C109.365 16.6122 108.864 16.9798 108.225 17.2496C107.59 17.516 106.862 17.6491 106.041 17.6491ZM106.041 15.9553C106.407 15.9553 106.727 15.8896 107 15.7582C107.273 15.6232 107.487 15.4386 107.639 15.2042C107.795 14.9663 107.874 14.6928 107.874 14.3839C107.874 14.0678 107.794 13.7891 107.634 13.5476C107.474 13.3026 107.258 13.1108 106.984 12.9723C106.711 12.8303 106.396 12.7592 106.041 12.7592C105.69 12.7592 105.375 12.8303 105.098 12.9723C104.821 13.1108 104.603 13.3026 104.443 13.5476C104.287 13.7891 104.209 14.0678 104.209 14.3839C104.209 14.6928 104.285 14.9663 104.438 15.2042C104.591 15.4386 104.805 15.6232 105.082 15.7582C105.359 15.8896 105.679 15.9553 106.041 15.9553ZM106.041 11.0813C106.347 11.0813 106.618 11.0192 106.856 10.8949C107.094 10.7706 107.281 10.5984 107.416 10.3782C107.55 10.158 107.618 9.90412 107.618 9.61648C107.618 9.33239 107.55 9.08381 107.416 8.87074C107.281 8.65412 107.096 8.48544 106.862 8.3647C106.627 8.24041 106.354 8.17827 106.041 8.17827C105.732 8.17827 105.459 8.24041 105.221 8.3647C104.983 8.48544 104.797 8.65412 104.662 8.87074C104.53 9.08381 104.465 9.33239 104.465 9.61648C104.465 9.90412 104.532 10.158 104.667 10.3782C104.802 10.5984 104.988 10.7706 105.226 10.8949C105.464 11.0192 105.736 11.0813 106.041 11.0813ZM114.069 16.0085L114.01 16.5945C113.964 17.0632 113.875 17.5302 113.744 17.9954C113.616 18.4641 113.481 18.8885 113.339 19.2685C113.2 19.6484 113.088 19.9467 113.003 20.1634H111.533C111.586 19.9538 111.659 19.6609 111.751 19.2844C111.844 18.9116 111.931 18.4925 112.012 18.0273C112.094 17.5621 112.146 17.0881 112.167 16.6051L112.194 16.0085H114.069ZM119.96 17.7397C119.044 17.7362 118.255 17.5107 117.595 17.0632C116.938 16.6158 116.432 15.9677 116.077 15.119C115.725 14.2702 115.551 13.2493 115.555 12.0561C115.555 10.8665 115.731 9.85263 116.082 9.01456C116.437 8.17649 116.943 7.53906 117.6 7.10227C118.261 6.66193 119.047 6.44176 119.96 6.44176C120.873 6.44176 121.657 6.66193 122.314 7.10227C122.975 7.54261 123.483 8.18182 123.838 9.01989C124.193 9.8544 124.369 10.8665 124.365 12.0561C124.365 13.2528 124.188 14.2756 123.832 15.1243C123.481 15.973 122.977 16.6211 122.32 17.0685C121.663 17.516 120.876 17.7397 119.96 17.7397ZM119.96 15.8274C120.585 15.8274 121.084 15.5131 121.457 14.8846C121.83 14.256 122.014 13.3132 122.011 12.0561C122.011 11.2287 121.925 10.5398 121.755 9.98935C121.588 9.43892 121.35 9.02521 121.041 8.74822C120.736 8.47124 120.375 8.33274 119.96 8.33274C119.338 8.33274 118.841 8.64347 118.468 9.26491C118.096 9.88636 117.907 10.8168 117.904 12.0561C117.904 12.8942 117.987 13.5938 118.154 14.1548C118.325 14.7124 118.564 15.1314 118.873 15.4119C119.182 15.6889 119.544 15.8274 119.96 15.8274ZM130.287 17.7397C129.371 17.7362 128.583 17.5107 127.922 17.0632C127.265 16.6158 126.759 15.9677 126.404 15.119C126.052 14.2702 125.878 13.2493 125.882 12.0561C125.882 10.8665 126.058 9.85263 126.409 9.01456C126.764 8.17649 127.27 7.53906 127.927 7.10227C128.588 6.66193 129.374 6.44176 130.287 6.44176C131.2 6.44176 131.985 6.66193 132.641 7.10227C133.302 7.54261 133.81 8.18182 134.165 9.01989C134.52 9.8544 134.696 10.8665 134.692 12.0561C134.692 13.2528 134.515 14.2756 134.16 15.1243C133.808 15.973 133.304 16.6211 132.647 17.0685C131.99 17.516 131.203 17.7397 130.287 17.7397ZM130.287 15.8274C130.912 15.8274 131.411 15.5131 131.784 14.8846C132.157 14.256 132.341 13.3132 132.338 12.0561C132.338 11.2287 132.253 10.5398 132.082 9.98935C131.915 9.43892 131.677 9.02521 131.368 8.74822C131.063 8.47124 130.703 8.33274 130.287 8.33274C129.666 8.33274 129.168 8.64347 128.796 9.26491C128.423 9.88636 128.235 10.8168 128.231 12.0561C128.231 12.8942 128.314 13.5938 128.481 14.1548C128.652 14.7124 128.891 15.1314 129.2 15.4119C129.509 15.6889 129.872 15.8274 130.287 15.8274ZM140.614 17.7397C139.698 17.7362 138.91 17.5107 138.249 17.0632C137.592 16.6158 137.086 15.9677 136.731 15.119C136.379 14.2702 136.205 13.2493 136.209 12.0561C136.209 10.8665 136.385 9.85263 136.736 9.01456C137.091 8.17649 137.598 7.53906 138.254 7.10227C138.915 6.66193 139.702 6.44176 140.614 6.44176C141.527 6.44176 142.312 6.66193 142.969 7.10227C143.629 7.54261 144.137 8.18182 144.492 9.01989C144.847 9.8544 145.023 10.8665 145.019 12.0561C145.019 13.2528 144.842 14.2756 144.487 15.1243C144.135 15.973 143.631 16.6211 142.974 17.0685C142.317 17.516 141.53 17.7397 140.614 17.7397ZM140.614 15.8274C141.239 15.8274 141.738 15.5131 142.111 14.8846C142.484 14.256 142.669 13.3132 142.665 12.0561C142.665 11.2287 142.58 10.5398 142.409 9.98935C142.242 9.43892 142.004 9.02521 141.696 8.74822C141.39 8.47124 141.03 8.33274 140.614 8.33274C139.993 8.33274 139.496 8.64347 139.123 9.26491C138.75 9.88636 138.562 10.8168 138.558 12.0561C138.558 12.8942 138.642 13.5938 138.808 14.1548C138.979 14.7124 139.219 15.1314 139.528 15.4119C139.837 15.6889 140.199 15.8274 140.614 15.8274Z" fill="#635BFF"/>
<path d="M38.4856 8.602V7.194H43.8536V8.602H41.9836V9.053C41.9836 10.791 42.7316 11.495 44.0406 11.759V13.189C42.8526 13.024 41.7746 12.507 41.1916 11.737C40.5756 12.518 39.4536 13.167 38.2876 13.299V11.869C39.5856 11.605 40.3336 10.824 40.3336 9.053V8.602H38.4856ZM46.7686 7.084V14.212H45.0966V10.725H43.2816V9.328H45.0966V7.084H46.7686ZM46.9336 15.895V17.292H39.0576V13.673H40.7296V15.895H46.9336ZM49.0562 8.591C49.0562 8.118 49.2982 7.755 49.7052 7.502C50.2332 7.172 51.0142 7.029 51.9272 7.029C52.8292 7.029 53.6212 7.172 54.1382 7.502C54.5342 7.755 54.7982 8.118 54.7982 8.591C54.7982 9.075 54.5342 9.438 54.1382 9.68C53.6212 10.01 52.8292 10.153 51.9272 10.153C51.0142 10.153 50.2332 10.01 49.7052 9.68C49.2982 9.438 49.0562 9.075 49.0562 8.591ZM50.6072 8.591C50.6072 8.69 50.6622 8.778 50.7832 8.833C50.9922 8.965 51.4102 9.009 51.9272 9.009C52.4332 9.009 52.8402 8.965 53.0712 8.833C53.1702 8.778 53.2362 8.69 53.2362 8.591C53.2362 8.492 53.1702 8.415 53.0712 8.338C52.8402 8.228 52.4332 8.173 51.9272 8.173C51.4102 8.173 50.9922 8.228 50.7832 8.338C50.6622 8.415 50.6072 8.492 50.6072 8.591ZM57.3282 7.084V12.947H55.6562V12.826H53.5882V11.704H55.6562V7.084H57.3282ZM50.6622 11.572H48.7042V10.373H53.7092C54.2922 10.373 54.7872 10.362 55.2602 10.263V11.385C54.7982 11.528 54.2592 11.572 53.6432 11.572H52.3342V12.947H50.6622V11.572ZM57.3282 15.829H51.2892V16.225H57.4492V17.347H49.6172V14.729H55.6562V14.322H49.6172V13.178H57.3282V15.829ZM65.6102 16.577H62.8382V7.26H66.6002V8.657H64.4112V15.191H65.8852C66.6002 15.191 67.1282 15.081 67.4472 14.839V7.139H68.9982V10.945H69.6912V7.084H71.2642V17.237H69.6912V12.364H68.9982V17.149H67.4472V16.181C67.1172 16.456 66.5122 16.577 65.6102 16.577ZM75.1027 7.26V10.648H76.8737V7.26H78.5347V16.577H73.4527V7.26H75.1027ZM75.1027 15.18H76.8737V12.067H75.1027V15.18ZM79.9977 7.084H81.6697V17.237H79.9977V7.084Z" fill="#635BFF"/>
<path d="M156.293 13.2H158.196V7.315H159.648V14.993H158.196V14.19H156.293V13.2ZM154.346 8.712C153.664 8.712 153.191 8.976 153.191 9.471C153.191 9.966 153.664 10.219 154.346 10.219C155.017 10.219 155.49 9.966 155.49 9.471C155.49 8.976 155.017 8.712 154.346 8.712ZM154.346 11.275C152.861 11.275 151.827 10.549 151.827 9.471C151.827 8.393 152.861 7.656 154.346 7.656C155.82 7.656 156.865 8.393 156.865 9.471C156.865 10.549 155.82 11.275 154.346 11.275ZM153.807 16.115H159.868V17.27H152.355V14.256H153.763V12.903C152.872 12.947 152.025 12.958 151.266 12.958L151.079 11.803C152.927 11.792 155.391 11.77 157.525 11.495L157.624 12.529C156.832 12.661 156.018 12.749 155.204 12.815V14.729H153.807V16.115Z" fill="#635BFF"/>
<path d="M16.2095 20.6055C20.4985 20.6055 24.0454 17.0586 24.0454 12.7695C24.0454 8.47266 20.4985 4.93359 16.2017 4.93359C11.9126 4.93359 8.37354 8.47266 8.37354 12.7695C8.37354 17.0586 11.9204 20.6055 16.2095 20.6055ZM16.2173 16.7305C15.9438 16.7305 15.7407 16.5352 15.7407 16.2539V11.6523L15.7954 10.1758L14.9126 11.1602L13.7798 12.3008C13.686 12.3945 13.5767 12.4414 13.4438 12.4414C13.1782 12.4414 12.9907 12.2461 12.9907 11.9961C12.9907 11.8633 13.0298 11.7539 13.1157 11.668L15.8579 8.93359C15.9829 8.80859 16.0845 8.76172 16.2173 8.76172C16.3501 8.76172 16.4595 8.81641 16.5767 8.93359L19.3188 11.668C19.4048 11.7539 19.4517 11.8633 19.4517 11.9961C19.4517 12.2461 19.2563 12.4414 18.9985 12.4414C18.8657 12.4414 18.7485 12.3945 18.6626 12.3008L17.522 11.1602L16.6392 10.168L16.686 11.6523V16.2539C16.686 16.5352 16.4985 16.7305 16.2173 16.7305Z" fill="#635BFF"/>
</svg>
