<svg width="180" height="25" viewBox="0 0 180 25" fill="none" xmlns="http://www.w3.org/2000/svg">
<path d="M16 19.1953C20.2891 19.1953 23.8359 15.6484 23.8359 11.3594C23.8359 7.0625 20.2891 3.52344 15.9922 3.52344C11.7031 3.52344 8.16406 7.0625 8.16406 11.3594C8.16406 15.6484 11.7109 19.1953 16 19.1953ZM16.0078 15.3203C15.7344 15.3203 15.5312 15.125 15.5312 14.8438V10.2422L15.5859 8.76562L14.7031 9.75L13.5703 10.8906C13.4766 10.9844 13.3672 11.0312 13.2344 11.0312C12.9688 11.0312 12.7812 10.8359 12.7812 10.5859C12.7812 10.4531 12.8203 10.3438 12.9062 10.2578L15.6484 7.52344C15.7734 7.39844 15.875 7.35156 16.0078 7.35156C16.1406 7.35156 16.25 7.40625 16.3672 7.52344L19.1094 10.2578C19.1953 10.3438 19.2422 10.4531 19.2422 10.5859C19.2422 10.8359 19.0469 11.0312 18.7891 11.0312C18.6562 11.0312 18.5391 10.9844 18.4531 10.8906L17.3125 9.75L16.4297 8.75781L16.4766 10.2422V14.8438C16.4766 15.125 16.2891 15.3203 16.0078 15.3203Z" fill="#635BFF"/>
<rect y="0.0898438" width="180" height="24" rx="12" fill="#635BFF" fill-opacity="0.21"/>
<path d="M92.3139 17.0898V15.4279L96.1971 11.8324C96.5273 11.5128 96.8043 11.2251 97.0281 10.9695C97.2553 10.7138 97.4276 10.4634 97.5447 10.2184C97.6619 9.96982 97.7205 9.7017 97.7205 9.41406C97.7205 9.09446 97.6477 8.81925 97.5021 8.58842C97.3565 8.35405 97.1577 8.17472 96.9055 8.05043C96.6534 7.92259 96.3675 7.85866 96.0479 7.85866C95.7141 7.85866 95.4229 7.92614 95.1744 8.06108C94.9258 8.19602 94.734 8.38956 94.5991 8.64169C94.4641 8.89382 94.3967 9.19389 94.3967 9.5419H92.2074C92.2074 8.82812 92.369 8.20845 92.6921 7.68288C93.0153 7.15732 93.468 6.75071 94.0504 6.46307C94.6328 6.17543 95.304 6.0316 96.0639 6.0316C96.8452 6.0316 97.5252 6.1701 98.104 6.44709C98.6864 6.72053 99.1392 7.1005 99.4624 7.587C99.7855 8.07351 99.9471 8.63104 99.9471 9.25959C99.9471 9.67152 99.8654 10.0781 99.7021 10.4794C99.5423 10.8807 99.2564 11.3263 98.8445 11.8164C98.4325 12.3029 97.8519 12.8871 97.1026 13.5689L95.5099 15.1296V15.2042H100.091V17.0898H92.3139ZM105.832 17.239C105.011 17.239 104.282 17.1058 103.642 16.8395C103.007 16.5696 102.508 16.2021 102.146 15.7369C101.783 15.2717 101.602 14.7443 101.602 14.1548C101.602 13.7003 101.705 13.283 101.911 12.9031C102.121 12.5195 102.405 12.2017 102.764 11.9496C103.122 11.6939 103.524 11.5305 103.967 11.4595V11.3849C103.385 11.2678 102.913 10.9854 102.551 10.538C102.188 10.087 102.007 9.56321 102.007 8.96662C102.007 8.40199 102.172 7.8995 102.503 7.45916C102.833 7.01527 103.286 6.66726 103.861 6.41513C104.44 6.15945 105.097 6.0316 105.832 6.0316C106.567 6.0316 107.222 6.15945 107.797 6.41513C108.376 6.67081 108.831 7.0206 109.161 7.46449C109.491 7.90483 109.658 8.40554 109.662 8.96662C109.658 9.56676 109.473 10.0906 109.108 10.538C108.742 10.9854 108.273 11.2678 107.701 11.3849V11.4595C108.138 11.5305 108.534 11.6939 108.889 11.9496C109.248 12.2017 109.532 12.5195 109.742 12.9031C109.955 13.283 110.063 13.7003 110.066 14.1548C110.063 14.7443 109.88 15.2717 109.518 15.7369C109.156 16.2021 108.655 16.5696 108.016 16.8395C107.38 17.1058 106.652 17.239 105.832 17.239ZM105.832 15.5451C106.198 15.5451 106.517 15.4794 106.791 15.348C107.064 15.2131 107.277 15.0284 107.43 14.794C107.586 14.5561 107.664 14.2827 107.664 13.9737C107.664 13.6577 107.584 13.3789 107.424 13.1374C107.265 12.8924 107.048 12.7006 106.775 12.5621C106.501 12.4201 106.187 12.3491 105.832 12.3491C105.48 12.3491 105.166 12.4201 104.889 12.5621C104.612 12.7006 104.394 12.8924 104.234 13.1374C104.078 13.3789 103.999 13.6577 103.999 13.9737C103.999 14.2827 104.076 14.5561 104.228 14.794C104.381 15.0284 104.596 15.2131 104.873 15.348C105.15 15.4794 105.47 15.5451 105.832 15.5451ZM105.832 10.6712C106.137 10.6712 106.409 10.609 106.647 10.4847C106.885 10.3604 107.071 10.1882 107.206 9.96804C107.341 9.74787 107.408 9.49396 107.408 9.20632C107.408 8.92223 107.341 8.67365 107.206 8.46058C107.071 8.24396 106.886 8.07528 106.652 7.95455C106.418 7.83026 106.144 7.76811 105.832 7.76811C105.523 7.76811 105.249 7.83026 105.011 7.95455C104.774 8.07528 104.587 8.24396 104.452 8.46058C104.321 8.67365 104.255 8.92223 104.255 9.20632C104.255 9.49396 104.323 9.74787 104.457 9.96804C104.592 10.1882 104.779 10.3604 105.017 10.4847C105.255 10.609 105.526 10.6712 105.832 10.6712ZM113.859 15.5984L113.801 16.1843C113.754 16.6531 113.666 17.12 113.534 17.5852C113.406 18.054 113.271 18.4783 113.129 18.8583C112.991 19.2383 112.879 19.5366 112.794 19.7532H111.324C111.377 19.5437 111.45 19.2507 111.542 18.8743C111.634 18.5014 111.721 18.0824 111.803 17.6172C111.885 17.152 111.936 16.6779 111.957 16.195L111.984 15.5984H113.859ZM119.75 17.3295C118.834 17.326 118.046 17.1005 117.385 16.6531C116.728 16.2056 116.222 15.5575 115.867 14.7088C115.516 13.8601 115.342 12.8391 115.345 11.646C115.345 10.4563 115.521 9.44247 115.873 8.6044C116.228 7.76633 116.734 7.12891 117.391 6.69212C118.051 6.25178 118.838 6.0316 119.75 6.0316C120.663 6.0316 121.448 6.25178 122.105 6.69212C122.765 7.13246 123.273 7.77166 123.628 8.60973C123.983 9.44425 124.159 10.4563 124.156 11.646C124.156 12.8427 123.978 13.8654 123.623 14.7141C123.271 15.5629 122.767 16.2109 122.11 16.6584C121.453 17.1058 120.667 17.3295 119.75 17.3295ZM119.75 15.4173C120.375 15.4173 120.874 15.103 121.247 14.4744C121.62 13.8459 121.805 12.9031 121.801 11.646C121.801 10.8185 121.716 10.1296 121.546 9.57919C121.379 9.02876 121.141 8.61506 120.832 8.33807C120.526 8.06108 120.166 7.92259 119.75 7.92259C119.129 7.92259 118.632 8.23331 118.259 8.85476C117.886 9.47621 117.698 10.4066 117.694 11.646C117.694 12.484 117.778 13.1836 117.945 13.7447C118.115 14.3022 118.355 14.7212 118.664 15.0018C118.973 15.2788 119.335 15.4173 119.75 15.4173ZM130.078 17.3295C129.161 17.326 128.373 17.1005 127.713 16.6531C127.056 16.2056 126.55 15.5575 126.194 14.7088C125.843 13.8601 125.669 12.8391 125.672 11.646C125.672 10.4563 125.848 9.44247 126.2 8.6044C126.555 7.76633 127.061 7.12891 127.718 6.69212C128.378 6.25178 129.165 6.0316 130.078 6.0316C130.99 6.0316 131.775 6.25178 132.432 6.69212C133.093 7.13246 133.6 7.77166 133.955 8.60973C134.311 9.44425 134.486 10.4563 134.483 11.646C134.483 12.8427 134.305 13.8654 133.95 14.7141C133.599 15.5629 133.094 16.2109 132.437 16.6584C131.78 17.1058 130.994 17.3295 130.078 17.3295ZM130.078 15.4173C130.703 15.4173 131.202 15.103 131.574 14.4744C131.947 13.8459 132.132 12.9031 132.128 11.646C132.128 10.8185 132.043 10.1296 131.873 9.57919C131.706 9.02876 131.468 8.61506 131.159 8.33807C130.854 8.06108 130.493 7.92259 130.078 7.92259C129.456 7.92259 128.959 8.23331 128.586 8.85476C128.213 9.47621 128.025 10.4066 128.021 11.646C128.021 12.484 128.105 13.1836 128.272 13.7447C128.442 14.3022 128.682 14.7212 128.991 15.0018C129.3 15.2788 129.662 15.4173 130.078 15.4173ZM140.405 17.3295C139.489 17.326 138.7 17.1005 138.04 16.6531C137.383 16.2056 136.877 15.5575 136.522 14.7088C136.17 13.8601 135.996 12.8391 136 11.646C136 10.4563 136.175 9.44247 136.527 8.6044C136.882 7.76633 137.388 7.12891 138.045 6.69212C138.706 6.25178 139.492 6.0316 140.405 6.0316C141.317 6.0316 142.102 6.25178 142.759 6.69212C143.42 7.13246 143.927 7.77166 144.283 8.60973C144.638 9.44425 144.813 10.4563 144.81 11.646C144.81 12.8427 144.632 13.8654 144.277 14.7141C143.926 15.5629 143.421 16.2109 142.764 16.6584C142.108 17.1058 141.321 17.3295 140.405 17.3295ZM140.405 15.4173C141.03 15.4173 141.529 15.103 141.902 14.4744C142.274 13.8459 142.459 12.9031 142.456 11.646C142.456 10.8185 142.37 10.1296 142.2 9.57919C142.033 9.02876 141.795 8.61506 141.486 8.33807C141.181 8.06108 140.82 7.92259 140.405 7.92259C139.783 7.92259 139.286 8.23331 138.913 8.85476C138.54 9.47621 138.352 10.4066 138.349 11.646C138.349 12.484 138.432 13.1836 138.599 13.7447C138.769 14.3022 139.009 14.7212 139.318 15.0018C139.627 15.2788 139.989 15.4173 140.405 15.4173Z" fill="#635BFF"/>
<path d="M38.2762 8.19184V6.78384H43.6442V8.19184H41.7742V8.64284C41.7742 10.3808 42.5222 11.0848 43.8312 11.3488V12.7788C42.6432 12.6138 41.5652 12.0968 40.9822 11.3268C40.3662 12.1078 39.2442 12.7568 38.0782 12.8888V11.4588C39.3762 11.1948 40.1242 10.4138 40.1242 8.64284V8.19184H38.2762ZM46.5592 6.67384V13.8018H44.8872V10.3148H43.0722V8.91784H44.8872V6.67384H46.5592ZM46.7242 15.4848V16.8818H38.8482V13.2628H40.5202V15.4848H46.7242ZM48.8467 8.18084C48.8467 7.70784 49.0887 7.34484 49.4957 7.09184C50.0237 6.76184 50.8047 6.61884 51.7177 6.61884C52.6197 6.61884 53.4117 6.76184 53.9287 7.09184C54.3247 7.34484 54.5887 7.70784 54.5887 8.18084C54.5887 8.66484 54.3247 9.02784 53.9287 9.26984C53.4117 9.59984 52.6197 9.74284 51.7177 9.74284C50.8047 9.74284 50.0237 9.59984 49.4957 9.26984C49.0887 9.02784 48.8467 8.66484 48.8467 8.18084ZM50.3977 8.18084C50.3977 8.27984 50.4527 8.36784 50.5737 8.42284C50.7827 8.55484 51.2007 8.59884 51.7177 8.59884C52.2237 8.59884 52.6307 8.55484 52.8617 8.42284C52.9607 8.36784 53.0267 8.27984 53.0267 8.18084C53.0267 8.08184 52.9607 8.00484 52.8617 7.92784C52.6307 7.81784 52.2237 7.76284 51.7177 7.76284C51.2007 7.76284 50.7827 7.81784 50.5737 7.92784C50.4527 8.00484 50.3977 8.08184 50.3977 8.18084ZM57.1187 6.67384V12.5368H55.4467V12.4158H53.3787V11.2938H55.4467V6.67384H57.1187ZM50.4527 11.1618H48.4947V9.96284H53.4997C54.0827 9.96284 54.5777 9.95184 55.0507 9.85284V10.9748C54.5887 11.1178 54.0497 11.1618 53.4337 11.1618H52.1247V12.5368H50.4527V11.1618ZM57.1187 15.4188H51.0797V15.8148H57.2397V16.9368H49.4077V14.3188H55.4467V13.9118H49.4077V12.7678H57.1187V15.4188ZM65.4007 16.1668H62.6287V6.84984H66.3907V8.24684H64.2017V14.7808H65.6757C66.3907 14.7808 66.9187 14.6708 67.2377 14.4288V6.72884H68.7887V10.5348H69.4817V6.67384H71.0547V16.8268H69.4817V11.9538H68.7887V16.7388H67.2377V15.7708C66.9077 16.0458 66.3027 16.1668 65.4007 16.1668ZM74.8933 6.84984V10.2378H76.6643V6.84984H78.3253V16.1668H73.2433V6.84984H74.8933ZM74.8933 14.7698H76.6643V11.6568H74.8933V14.7698ZM79.7883 6.67384H81.4603V16.8268H79.7883V6.67384Z" fill="#635BFF"/>
<path d="M156.083 12.7898H157.986V6.90484H159.438V14.5828H157.986V13.7798H156.083V12.7898ZM154.136 8.30184C153.454 8.30184 152.981 8.56584 152.981 9.06084C152.981 9.55584 153.454 9.80884 154.136 9.80884C154.807 9.80884 155.28 9.55584 155.28 9.06084C155.28 8.56584 154.807 8.30184 154.136 8.30184ZM154.136 10.8648C152.651 10.8648 151.617 10.1388 151.617 9.06084C151.617 7.98284 152.651 7.24584 154.136 7.24584C155.61 7.24584 156.655 7.98284 156.655 9.06084C156.655 10.1388 155.61 10.8648 154.136 10.8648ZM153.597 15.7048H159.658V16.8598H152.145V13.8458H153.553V12.4928C152.662 12.5368 151.815 12.5478 151.056 12.5478L150.869 11.3928C152.717 11.3818 155.181 11.3598 157.315 11.0848L157.414 12.1188C156.622 12.2508 155.808 12.3388 154.994 12.4048V14.3188H153.597V15.7048Z" fill="#635BFF"/>
</svg>
