<svg width="32" height="32" viewBox="0 0 32 32" fill="none" xmlns="http://www.w3.org/2000/svg">
<path d="M14.915 27.5557H17.085C17.8369 27.5557 18.3955 27.1045 18.5781 26.3633L19.0508 24.29L19.5664 24.1074L21.3604 25.2246C22.0049 25.6436 22.7246 25.5469 23.2617 25.0098L24.7656 23.5059C25.3135 22.9688 25.3994 22.249 24.9912 21.6045L23.8633 19.8105L24.0459 19.3057L26.1191 18.833C26.8604 18.6504 27.3115 18.0918 27.3115 17.3398V15.2021C27.3115 14.4502 26.8604 13.8916 26.1191 13.709L24.0674 13.2148L23.8633 12.71L25.002 10.916C25.4102 10.2715 25.3242 9.5625 24.7764 9.01465L23.2725 7.5C22.7354 6.97363 22.0264 6.87695 21.3711 7.28516L19.5771 8.40234L19.0508 8.20898L18.5781 6.13574C18.3955 5.38379 17.8369 4.94336 17.085 4.94336H14.915C14.1523 4.94336 13.6045 5.38379 13.4219 6.13574L12.9492 8.20898L12.4121 8.40234L10.6182 7.28516C9.96289 6.87695 9.25391 6.97363 8.72754 7.5L7.21289 9.01465C6.67578 9.5625 6.5791 10.2715 6.99805 10.916L8.12598 12.71L7.92188 13.2148L5.88086 13.709C5.12891 13.8916 4.68848 14.4502 4.68848 15.2021V17.3398C4.68848 18.0918 5.13965 18.6504 5.88086 18.833L7.94336 19.3057L8.12598 19.8105L6.99805 21.6045C6.58984 22.249 6.67578 22.9688 7.22363 23.5059L8.72754 25.0098C9.26465 25.5469 9.98438 25.6436 10.6289 25.2246L12.4229 24.1074L12.9492 24.29L13.4219 26.3633C13.6045 27.1045 14.1523 27.5557 14.915 27.5557ZM15.0547 26.2559C14.7969 26.2559 14.6572 26.1377 14.6143 25.9014L13.9912 23.291C13.4004 23.1299 12.8418 22.9043 12.4014 22.6572L10.124 24.0752C9.91992 24.2041 9.72656 24.1826 9.5332 24L8.2334 22.6895C8.05078 22.5068 8.0293 22.3242 8.16895 22.1094L9.57617 19.832C9.37207 19.4131 9.11426 18.8438 8.96387 18.2529L6.34277 17.6406C6.10645 17.5977 5.97754 17.458 5.97754 17.2002V15.3311C5.97754 15.0732 6.0957 14.9336 6.34277 14.8799L8.95312 14.2676C9.11426 13.6553 9.38281 13.0752 9.56543 12.6777L8.1582 10.4111C8.01855 10.1855 8.0293 10.0029 8.21191 9.82031L9.52246 8.52051C9.71582 8.33789 9.89844 8.31641 10.124 8.44531L12.3799 9.8418C12.8203 9.61621 13.4219 9.37988 14.002 9.20801L14.6143 6.59766C14.6572 6.36133 14.7969 6.24316 15.0547 6.24316H16.9453C17.2031 6.24316 17.3428 6.35059 17.3857 6.59766L18.0088 9.22949C18.6104 9.37988 19.1475 9.62695 19.5986 9.85254L21.8652 8.44531C22.0908 8.31641 22.2734 8.33789 22.4668 8.52051L23.7773 9.82031C23.96 10.0029 23.9707 10.1855 23.8311 10.4111L22.4238 12.6777C22.6172 13.0752 22.8857 13.6445 23.0469 14.2676L25.6572 14.8799C25.9043 14.9336 26.0117 15.0732 26.0117 15.3311V17.2002C26.0117 17.458 25.8936 17.5977 25.6572 17.6406L23.0361 18.2529C22.875 18.8545 22.6387 19.4131 22.4131 19.832L23.8203 22.1094C23.96 22.3242 23.9385 22.5068 23.7666 22.6895L22.4561 24C22.2627 24.1826 22.0693 24.2041 21.8652 24.0752L19.5879 22.6572C19.1582 22.9043 18.6104 23.1299 18.0088 23.291L17.3857 25.9014C17.3428 26.1484 17.2031 26.2559 16.9453 26.2559H15.0547ZM16 20.3584C18.2559 20.3584 20.1035 18.5 20.1035 16.2441C20.1035 14.0098 18.2559 12.1621 16 12.1621C13.7549 12.1621 11.8965 14.0098 11.8965 16.2441C11.8965 18.5 13.7549 20.3584 16 20.3584ZM16 19.0693C14.4639 19.0693 13.1855 17.791 13.1855 16.2441C13.1855 14.7188 14.4639 13.4404 16 13.4404C17.5254 13.4404 18.8037 14.7188 18.8037 16.2441C18.8037 17.7803 17.5254 19.0693 16 19.0693Z" fill="#033525"/>
</svg>
