<svg width="28" height="28" viewBox="0 0 28 28" fill="none" xmlns="http://www.w3.org/2000/svg">
<path d="M0 9.6C0 4.29807 4.29807 0 9.6 0H18.4C23.7019 0 28 4.29807 28 9.6V18.4C28 23.7019 23.7019 28 18.4 28H9.6C4.29807 28 0 23.7019 0 18.4V9.6Z" fill="white"/>
<path d="M20.609 10.8902C19.8103 10.8899 19.2314 10.1702 18.6615 9.61045C18.6537 9.60282 18.6459 9.59527 18.6379 9.58779C18.3138 9.27304 17.8504 9.11555 17.2476 9.11531C16.8486 9.11516 16.5161 9.17846 16.25 9.30521C15.9839 9.43197 15.7844 9.60697 15.6513 9.8302C15.5183 10.0483 15.4496 10.2995 15.4454 10.5837C15.437 10.8171 15.4744 11.0226 15.5575 11.2003C15.6447 11.3779 15.7694 11.5353 15.9315 11.6724C16.0977 11.8044 16.2972 11.9212 16.53 12.0227C16.7627 12.1243 17.0246 12.2132 17.3155 12.2895L18.4128 12.5944C19.0446 12.7621 19.6015 12.9856 20.0836 13.2649C20.5699 13.5441 20.9772 13.8767 21.3055 14.2625C21.6379 14.6483 21.8893 15.0924 22.0596 15.5948C22.2299 16.0973 22.3171 16.6606 22.3211 17.2848C22.3167 18.2692 22.1129 19.114 21.7095 19.8192C21.3061 20.5245 20.7262 21.0647 19.9696 21.4399C19.2171 21.8151 18.3088 22.0025 17.2447 22.0021C16.1765 22.0017 15.2454 21.8059 14.4516 21.4149C13.6577 21.0238 13.0406 20.4299 12.6002 19.633C12.3575 19.1938 12.1798 18.6907 12.0671 18.1237C11.9038 17.3017 12.6052 16.6111 13.4432 16.6114L13.5655 16.6115C14.2999 16.6118 14.8369 17.2336 15.2068 17.8681C15.4021 18.2031 15.6702 18.4569 16.011 18.6296C16.3559 18.8022 16.755 18.8887 17.208 18.8888C17.6237 18.889 17.977 18.8206 18.268 18.6837C18.5632 18.5468 18.7898 18.3566 18.9478 18.1131C19.1058 17.8696 19.1869 17.5905 19.1911 17.2759C19.187 16.9816 19.1123 16.7304 18.9668 16.5223C18.8214 16.3091 18.597 16.1263 18.2936 15.974C17.9943 15.8165 17.612 15.6718 17.1464 15.5396L15.8122 15.1585C14.7066 14.8485 13.8359 14.3484 13.2001 13.658C12.5643 12.9625 12.2486 12.0236 12.253 10.8412C12.2491 9.87707 12.4613 9.03224 12.8896 8.30675C13.3179 7.58126 13.9103 7.01568 14.6669 6.61002C15.4235 6.20435 16.2861 6.00171 17.2546 6.00209C18.2439 6.00248 19.1022 6.20833 19.8295 6.61965C20.561 7.0259 21.1282 7.59701 21.5313 8.33297C21.7081 8.65592 21.847 9.00132 21.9478 9.36918C22.1718 10.1869 21.4568 10.8905 20.609 10.8902Z" fill="black"/>
<path d="M13.7264 10.8868C12.9277 10.8868 12.3486 10.1673 11.7786 9.60781C11.7709 9.60019 11.763 9.59264 11.7551 9.58516C11.4309 9.27054 10.9674 9.11323 10.3647 9.11323C9.96564 9.11323 9.6331 9.17666 9.36708 9.30352C9.10105 9.43038 8.90153 9.60546 8.76851 9.82873C8.6355 10.0469 8.56692 10.2981 8.56276 10.5823C8.55445 10.8157 8.59186 11.0212 8.67499 11.1989C8.76228 11.3765 8.88698 11.5338 9.04909 11.6708C9.21536 11.8027 9.41488 11.9194 9.64765 12.0209C9.88043 12.1224 10.1423 12.2112 10.4333 12.2873L11.5306 12.5918C12.1624 12.7593 12.7194 12.9826 13.2016 13.2617C13.6879 13.5408 14.0953 13.8731 14.4237 14.2588C14.7562 14.6445 15.0077 15.0885 15.1781 15.5909C15.3485 16.0932 15.4358 16.6565 15.44 17.2807C15.4358 18.2651 15.2321 19.1101 14.8289 19.8154C14.4257 20.5208 13.8459 21.0612 13.0894 21.4367C12.337 21.8122 11.4288 22 10.3647 22C9.29641 22 8.36532 21.8046 7.57139 21.4139C6.77747 21.0232 6.1602 20.4294 5.71959 19.6327C5.47677 19.1937 5.29897 18.6906 5.18618 18.1236C5.02268 17.3018 5.72389 16.6108 6.56189 16.6108H6.68424C7.41864 16.6108 7.95579 17.2324 8.32583 17.8668C8.52119 18.2017 8.7893 18.4554 9.13015 18.628C9.47515 18.8005 9.87419 18.8868 10.3273 18.8868C10.7429 18.8868 11.0963 18.8183 11.3872 18.6813C11.6823 18.5442 11.9089 18.3539 12.0668 18.1104C12.2248 17.8668 12.3058 17.5877 12.31 17.2731C12.3058 16.9788 12.231 16.7276 12.0855 16.5195C11.9401 16.3064 11.7156 16.1237 11.4122 15.9715C11.1129 15.8141 10.7305 15.6695 10.2649 15.5376L8.93063 15.157C7.82495 14.8474 6.95413 14.3476 6.31816 13.6575C5.68218 12.9623 5.36628 12.0235 5.37043 10.8411C5.36628 9.87694 5.57827 9.03203 6.0064 8.30637C6.43454 7.58072 7.02687 7.01491 7.78338 6.60894C8.5399 6.20298 9.40241 6 10.3709 6C11.3602 6 12.2186 6.20552 12.946 6.61656C13.6775 7.02252 14.2449 7.5934 14.6481 8.32921C14.8251 8.65209 14.964 8.99743 15.0649 9.36526C15.2891 10.1829 14.5742 10.8868 13.7264 10.8868Z" fill="#635BFF"/>
</svg>
