<svg width="332" height="117" viewBox="0 0 332 117" fill="none" xmlns="http://www.w3.org/2000/svg">
<rect x="143" y="38" width="53" height="79" rx="16" fill="#D0D7FF" fill-opacity="0.44"/>
<path d="M8.20414 59.9091H5.94775L2.69419 61.9993V64.1726L5.75598 62.2166H5.83269V73H8.20414V59.9091ZM16.4814 73.179C19.3131 73.179 21.3394 71.6193 21.3458 69.4908C21.3394 67.8544 20.1313 66.4865 18.61 66.2308V66.1413C19.9331 65.8473 20.8536 64.6584 20.86 63.2393C20.8536 61.2259 18.9999 59.7301 16.4814 59.7301C13.9438 59.7301 12.0901 61.2195 12.0965 63.2393C12.0901 64.6584 12.9977 65.8473 14.3465 66.1413V66.2308C12.7996 66.4865 11.6043 67.8544 11.6107 69.4908C11.6043 71.6193 13.6242 73.179 16.4814 73.179ZM16.4814 71.3509C14.9985 71.3509 14.0396 70.5327 14.0524 69.3246C14.0396 68.0717 15.0688 67.1832 16.4814 67.1832C17.8749 67.1832 18.8976 68.0781 18.9104 69.3246C18.8976 70.5327 17.9452 71.3509 16.4814 71.3509ZM16.4814 65.3871C15.2669 65.3871 14.3976 64.6009 14.4104 63.4631C14.3976 62.3381 15.2414 61.5838 16.4814 61.5838C17.7023 61.5838 18.5396 62.3381 18.5524 63.4631C18.5396 64.6072 17.6767 65.3871 16.4814 65.3871Z" fill="#1E293B"/>
<path d="M3.98885 82.2727V91H4.97749V84.3693H5.06271L7.78999 91H8.74453L11.4718 84.3693H11.557V91H12.5457V82.2727H11.2843L8.3184 89.517H8.21612L5.25021 82.2727H3.98885ZM17.4874 91.1364C19.2601 91.1364 20.4533 89.7898 20.4533 87.7614C20.4533 85.7159 19.2601 84.3693 17.4874 84.3693C15.7146 84.3693 14.5214 85.7159 14.5214 87.7614C14.5214 89.7898 15.7146 91.1364 17.4874 91.1364ZM17.4874 90.233C16.1408 90.233 15.5271 89.0739 15.5271 87.7614C15.5271 86.4489 16.1408 85.2727 17.4874 85.2727C18.8339 85.2727 19.4476 86.4489 19.4476 87.7614C19.4476 89.0739 18.8339 90.233 17.4874 90.233Z" fill="#94A3B8"/>
<path d="M58.1778 59.9091V73H55.8063V62.2166H55.7296L52.6678 64.1726V61.9993L55.9214 59.9091H58.1778ZM66.3464 59.7301C66.9728 59.7344 67.5822 59.8452 68.1745 60.0625C68.7711 60.2756 69.308 60.625 69.7853 61.1108C70.2626 61.5923 70.6418 62.2379 70.9231 63.0476C71.2043 63.8572 71.345 64.8587 71.345 66.0518C71.3492 67.1768 71.2299 68.1825 70.987 69.0689C70.7484 69.951 70.4053 70.6967 69.9579 71.3061C69.5104 71.9155 68.9714 72.38 68.3407 72.6996C67.71 73.0192 67.0005 73.179 66.2121 73.179C65.3854 73.179 64.6525 73.017 64.0133 72.6932C63.3783 72.3693 62.8648 71.9261 62.4728 71.3636C62.0808 70.8011 61.84 70.1577 61.7505 69.4332H64.0836C64.2029 69.9531 64.4458 70.3665 64.8123 70.6733C65.183 70.9759 65.6496 71.1271 66.2121 71.1271C67.1198 71.1271 67.8187 70.733 68.3087 69.9446C68.7988 69.1562 69.0438 68.0611 69.0438 66.6591H68.9543C68.7455 67.0341 68.4749 67.358 68.1425 67.6307C67.8102 67.8991 67.433 68.1058 67.0112 68.2507C66.5935 68.3956 66.1504 68.468 65.6816 68.468C64.9146 68.468 64.2242 68.2848 63.6106 67.9183C63.0012 67.5518 62.5175 67.049 62.1596 66.4098C61.8059 65.7706 61.6269 65.0398 61.6227 64.2173C61.6227 63.3651 61.8187 62.6001 62.2107 61.9226C62.607 61.2408 63.1589 60.7038 63.8663 60.3118C64.5737 59.9155 65.4004 59.7216 66.3464 59.7301ZM66.3528 61.6477C65.8925 61.6477 65.4771 61.7607 65.1063 61.9865C64.7398 62.2081 64.4501 62.5107 64.237 62.8942C64.0282 63.2734 63.9238 63.6974 63.9238 64.1662C63.9281 64.6307 64.0325 65.0526 64.237 65.4318C64.4458 65.8111 64.7292 66.1115 65.0871 66.3331C65.4494 66.5547 65.8627 66.6655 66.3272 66.6655C66.6724 66.6655 66.9941 66.5994 67.2924 66.4673C67.5907 66.3352 67.8506 66.152 68.0722 65.9176C68.2981 65.679 68.4728 65.4084 68.5964 65.1058C68.7242 64.8033 68.786 64.4837 68.7817 64.147C68.7817 63.6996 68.6752 63.2862 68.4621 62.907C68.2533 62.5277 67.9657 62.223 67.5992 61.9929C67.237 61.7628 66.8215 61.6477 66.3528 61.6477Z" fill="#1E293B"/>
<path d="M55.5389 83.2102V82.2727H62.0844V83.2102H59.3401V91H58.2832V83.2102H55.5389ZM67.1134 88.3239V84.4545H68.1191V91H67.1134V89.892H67.0452C66.8918 90.2244 66.6532 90.5071 66.3293 90.7401C66.0055 90.9702 65.5964 91.0852 65.1021 91.0852C64.693 91.0852 64.3293 90.9957 64.0112 90.8168C63.693 90.6349 63.443 90.3622 63.2612 89.9986C63.0793 89.6321 62.9884 89.1705 62.9884 88.6136V84.4545H63.9941V88.5455C63.9941 89.0227 64.1276 89.4034 64.3947 89.6875C64.6646 89.9716 65.0083 90.1136 65.4259 90.1136C65.6759 90.1136 65.9302 90.0497 66.1887 89.9219C66.4501 89.794 66.6688 89.598 66.845 89.3338C67.0239 89.0696 67.1134 88.733 67.1134 88.3239Z" fill="#94A3B8"/>
<path d="M105.421 73V71.2869L109.965 66.8317C110.4 66.3928 110.762 66.0028 111.052 65.6619C111.342 65.321 111.559 64.9908 111.704 64.6712C111.849 64.3516 111.921 64.0107 111.921 63.6484C111.921 63.2351 111.828 62.8814 111.64 62.5874C111.453 62.2891 111.195 62.0589 110.867 61.897C110.538 61.7351 110.166 61.6541 109.748 61.6541C109.318 61.6541 108.94 61.7436 108.617 61.9226C108.293 62.0973 108.041 62.3466 107.862 62.6705C107.688 62.9943 107.6 63.38 107.6 63.8274H105.344C105.344 62.9964 105.534 62.2741 105.913 61.6605C106.292 61.0469 106.814 60.5717 107.479 60.2351C108.148 59.8984 108.915 59.7301 109.78 59.7301C110.658 59.7301 111.429 59.8942 112.094 60.2223C112.759 60.5504 113.274 61 113.641 61.571C114.011 62.142 114.197 62.794 114.197 63.527C114.197 64.017 114.103 64.4986 113.916 64.9716C113.728 65.4446 113.398 65.9687 112.925 66.544C112.456 67.1193 111.798 67.8161 110.95 68.6342L108.693 70.929V71.0185H114.395V73H105.421ZM121.739 73.2493C120.686 73.2493 119.783 72.983 119.029 72.4503C118.279 71.9134 117.701 71.1399 117.297 70.13C116.896 69.1158 116.696 67.8949 116.696 66.4673C116.7 65.0398 116.902 63.8253 117.303 62.8239C117.708 61.8182 118.285 61.0511 119.035 60.5227C119.789 59.9943 120.691 59.7301 121.739 59.7301C122.787 59.7301 123.689 59.9943 124.443 60.5227C125.197 61.0511 125.775 61.8182 126.175 62.8239C126.58 63.8295 126.782 65.044 126.782 66.4673C126.782 67.8991 126.58 69.1222 126.175 70.1364C125.775 71.1463 125.197 71.9176 124.443 72.4503C123.693 72.983 122.792 73.2493 121.739 73.2493ZM121.739 71.2486C122.557 71.2486 123.203 70.8459 123.676 70.0405C124.153 69.2308 124.392 68.0398 124.392 66.4673C124.392 65.4276 124.283 64.554 124.066 63.8466C123.848 63.1392 123.542 62.6065 123.145 62.2486C122.749 61.8864 122.28 61.7053 121.739 61.7053C120.925 61.7053 120.282 62.1101 119.809 62.9197C119.336 63.7251 119.097 64.9077 119.093 66.4673C119.088 67.5114 119.193 68.3892 119.406 69.1009C119.623 69.8125 119.93 70.3494 120.326 70.7116C120.723 71.0696 121.194 71.2486 121.739 71.2486Z" fill="#1E293B"/>
<path d="M105.733 91L103.346 82.2727H104.42L106.244 89.3807H106.329L108.187 82.2727H109.38L111.238 89.3807H111.324L113.147 82.2727H114.221L111.835 91H110.744L108.818 84.0455H108.75L106.824 91H105.733ZM117.837 91.1364C117.206 91.1364 116.662 90.9972 116.205 90.7188C115.75 90.4375 115.399 90.0455 115.152 89.5426C114.908 89.0369 114.786 88.4489 114.786 87.7784C114.786 87.108 114.908 86.517 115.152 86.0057C115.399 85.4915 115.743 85.0909 116.183 84.804C116.626 84.5142 117.143 84.3693 117.734 84.3693C118.075 84.3693 118.412 84.4261 118.744 84.5398C119.077 84.6534 119.379 84.8381 119.652 85.0938C119.925 85.3466 120.142 85.6818 120.304 86.0994C120.466 86.517 120.547 87.0312 120.547 87.642V88.0682H115.501V87.1989H119.524C119.524 86.8295 119.45 86.5 119.303 86.2102C119.158 85.9205 118.95 85.6918 118.68 85.5241C118.413 85.3565 118.098 85.2727 117.734 85.2727C117.334 85.2727 116.987 85.3722 116.695 85.571C116.405 85.767 116.182 86.0227 116.026 86.3381C115.869 86.6534 115.791 86.9915 115.791 87.3523V87.9318C115.791 88.4261 115.876 88.8452 116.047 89.1889C116.22 89.5298 116.46 89.7898 116.767 89.9688C117.074 90.1449 117.43 90.233 117.837 90.233C118.101 90.233 118.339 90.196 118.553 90.1222C118.768 90.0455 118.955 89.9318 119.111 89.7812C119.267 89.6278 119.388 89.4375 119.473 89.2102L120.445 89.483C120.342 89.8125 120.17 90.1023 119.929 90.3523C119.688 90.5994 119.389 90.7926 119.034 90.9318C118.679 91.0682 118.28 91.1364 117.837 91.1364ZM124.848 91.1364C124.303 91.1364 123.821 90.9986 123.404 90.723C122.986 90.4446 122.659 90.0526 122.424 89.5469C122.188 89.0384 122.07 88.4375 122.07 87.7443C122.07 87.0568 122.188 86.4602 122.424 85.9545C122.659 85.4489 122.987 85.0582 123.408 84.7827C123.828 84.5071 124.314 84.3693 124.865 84.3693C125.291 84.3693 125.628 84.4403 125.875 84.5824C126.125 84.7216 126.316 84.8807 126.446 85.0597C126.58 85.2358 126.684 85.3807 126.757 85.4943H126.843V82.2727H127.848V91H126.877V89.9943H126.757C126.684 90.1136 126.578 90.2642 126.442 90.446C126.306 90.625 126.111 90.7855 125.858 90.9276C125.605 91.0668 125.269 91.1364 124.848 91.1364ZM124.985 90.233C125.388 90.233 125.729 90.1278 126.007 89.9176C126.286 89.7045 126.497 89.4105 126.642 89.0355C126.787 88.6577 126.86 88.2216 126.86 87.7273C126.86 87.2386 126.789 86.8111 126.647 86.4446C126.505 86.0753 126.294 85.7884 126.016 85.5838C125.737 85.3764 125.394 85.2727 124.985 85.2727C124.559 85.2727 124.203 85.3821 123.919 85.6009C123.638 85.8168 123.426 86.1108 123.284 86.483C123.145 86.8523 123.076 87.267 123.076 87.7273C123.076 88.1932 123.147 88.6165 123.289 88.9972C123.434 89.375 123.647 89.6761 123.928 89.9006C124.212 90.1222 124.564 90.233 124.985 90.233Z" fill="#94A3B8"/>
<path d="M159.838 73V70.7841L165.015 65.9901C165.455 65.5639 165.825 65.1804 166.123 64.8395C166.426 64.4986 166.656 64.1648 166.812 63.8381C166.968 63.5066 167.046 63.1491 167.046 62.7656C167.046 62.3395 166.949 61.9725 166.755 61.6648C166.561 61.3523 166.296 61.1132 165.96 60.9474C165.624 60.777 165.242 60.6918 164.816 60.6918C164.371 60.6918 163.983 60.7817 163.651 60.9616C163.32 61.1416 163.064 61.3996 162.884 61.7358C162.705 62.072 162.615 62.4721 162.615 62.9361H159.696C159.696 61.9844 159.911 61.1581 160.342 60.4574C160.773 59.7566 161.376 59.2145 162.153 58.831C162.929 58.4474 163.824 58.2557 164.838 58.2557C165.879 58.2557 166.786 58.4403 167.558 58.8097C168.334 59.1742 168.938 59.6809 169.369 60.3295C169.8 60.9782 170.015 61.7216 170.015 62.5597C170.015 63.1089 169.906 63.651 169.688 64.1861C169.475 64.7211 169.094 65.3153 168.545 65.9688C167.996 66.6174 167.222 67.3963 166.223 68.3054L164.099 70.3864V70.4858H170.207V73H159.838ZM179.063 58.4545V73H175.988V61.3736H175.903L172.572 63.4616V60.7344L176.173 58.4545H179.063Z" fill="#7A8EFF"/>
<path d="M161.696 83.1406V81.8182H169.576V83.1406H166.399V92H164.868V83.1406H161.696ZM172.984 87.4659V92H171.498V81.8182H172.965V85.6065H173.059C173.238 85.1955 173.511 84.8691 173.879 84.6271C174.247 84.3852 174.728 84.2642 175.321 84.2642C175.845 84.2642 176.302 84.3719 176.693 84.5874C177.088 84.8028 177.393 85.1243 177.608 85.5518C177.827 85.9761 177.936 86.5064 177.936 87.1428V92H176.45V87.3217C176.45 86.7616 176.305 86.3274 176.017 86.0192C175.729 85.7076 175.328 85.5518 174.814 85.5518C174.463 85.5518 174.148 85.6264 173.869 85.7756C173.594 85.9247 173.377 86.1435 173.218 86.4318C173.062 86.7169 172.984 87.0616 172.984 87.4659Z" fill="#7A8EFF"/>
<path d="M209.834 73V71.2869L214.378 66.8317C214.813 66.3928 215.175 66.0028 215.465 65.6619C215.755 65.321 215.972 64.9908 216.117 64.6712C216.262 64.3516 216.334 64.0107 216.334 63.6484C216.334 63.2351 216.241 62.8814 216.053 62.5874C215.866 62.2891 215.608 62.0589 215.28 61.897C214.952 61.7351 214.579 61.6541 214.161 61.6541C213.731 61.6541 213.354 61.7436 213.03 61.9226C212.706 62.0973 212.454 62.3466 212.275 62.6705C212.101 62.9943 212.013 63.38 212.013 63.8274H209.757C209.757 62.9964 209.947 62.2741 210.326 61.6605C210.705 61.0469 211.227 60.5717 211.892 60.2351C212.561 59.8984 213.328 59.7301 214.193 59.7301C215.071 59.7301 215.842 59.8942 216.507 60.2223C217.172 60.5504 217.687 61 218.054 61.571C218.425 62.142 218.61 62.794 218.61 63.527C218.61 64.017 218.516 64.4986 218.329 64.9716C218.141 65.4446 217.811 65.9687 217.338 66.544C216.869 67.1193 216.211 67.8161 215.363 68.6342L213.106 70.929V71.0185H218.808V73H209.834ZM221.313 73V71.2869L225.858 66.8317C226.293 66.3928 226.655 66.0028 226.945 65.6619C227.235 65.321 227.452 64.9908 227.597 64.6712C227.742 64.3516 227.814 64.0107 227.814 63.6484C227.814 63.2351 227.72 62.8814 227.533 62.5874C227.345 62.2891 227.088 62.0589 226.759 61.897C226.431 61.7351 226.058 61.6541 225.641 61.6541C225.21 61.6541 224.833 61.7436 224.509 61.9226C224.186 62.0973 223.934 62.3466 223.755 62.6705C223.58 62.9943 223.493 63.38 223.493 63.8274H221.237C221.237 62.9964 221.426 62.2741 221.806 61.6605C222.185 61.0469 222.707 60.5717 223.372 60.2351C224.041 59.8984 224.808 59.7301 225.673 59.7301C226.551 59.7301 227.322 59.8942 227.987 60.2223C228.651 60.5504 229.167 61 229.534 61.571C229.904 62.142 230.09 62.794 230.09 63.527C230.09 64.017 229.996 64.4986 229.808 64.9716C229.621 65.4446 229.291 65.9687 228.818 66.544C228.349 67.1193 227.69 67.8161 226.842 68.6342L224.586 70.929V71.0185H230.288V73H221.313Z" fill="#1E293B"/>
<path d="M215.188 91V82.2727H220.421V83.2102H216.245V86.1591H220.029V87.0966H216.245V91H215.188ZM222.324 91V84.4545H223.296V85.4432H223.364C223.483 85.1193 223.699 84.8565 224.012 84.6548C224.324 84.4531 224.677 84.3523 225.069 84.3523C225.143 84.3523 225.235 84.3537 225.346 84.3565C225.456 84.3594 225.54 84.3636 225.597 84.3693V85.392C225.563 85.3835 225.485 85.3707 225.363 85.3537C225.243 85.3338 225.117 85.3239 224.983 85.3239C224.665 85.3239 224.381 85.3906 224.131 85.5241C223.884 85.6548 223.688 85.8366 223.543 86.0696C223.401 86.2997 223.33 86.5625 223.33 86.858V91H222.324Z" fill="#94A3B8"/>
<path d="M259.561 73V71.2869L264.106 66.8317C264.541 66.3928 264.903 66.0028 265.193 65.6619C265.482 65.321 265.7 64.9908 265.845 64.6712C265.989 64.3516 266.062 64.0107 266.062 63.6484C266.062 63.2351 265.968 62.8814 265.781 62.5874C265.593 62.2891 265.335 62.0589 265.007 61.897C264.679 61.7351 264.306 61.6541 263.889 61.6541C263.458 61.6541 263.081 61.7436 262.757 61.9226C262.433 62.0973 262.182 62.3466 262.003 62.6705C261.828 62.9943 261.741 63.38 261.741 63.8274H259.484C259.484 62.9964 259.674 62.2741 260.053 61.6605C260.433 61.0469 260.955 60.5717 261.619 60.2351C262.288 59.8984 263.056 59.7301 263.921 59.7301C264.798 59.7301 265.57 59.8942 266.235 60.2223C266.899 60.5504 267.415 61 267.781 61.571C268.152 62.142 268.337 62.794 268.337 63.527C268.337 64.017 268.244 64.4986 268.056 64.9716C267.869 65.4446 267.538 65.9687 267.065 66.544C266.597 67.1193 265.938 67.8161 265.09 68.6342L262.834 70.929V71.0185H268.536V73H259.561ZM275.739 73.179C274.819 73.179 274 73.0213 273.285 72.706C272.573 72.3906 272.01 71.9517 271.597 71.3892C271.184 70.8267 270.964 70.1768 270.939 69.4396H273.342C273.363 69.7933 273.481 70.1023 273.694 70.3665C273.907 70.6264 274.19 70.8288 274.544 70.9737C274.897 71.1186 275.294 71.1911 275.733 71.1911C276.201 71.1911 276.617 71.1101 276.979 70.9482C277.341 70.782 277.625 70.5518 277.829 70.2578C278.034 69.9638 278.134 69.625 278.13 69.2415C278.134 68.8452 278.032 68.4957 277.823 68.1932C277.614 67.8906 277.311 67.6541 276.915 67.4837C276.523 67.3132 276.05 67.228 275.496 67.228H274.339V65.3999H275.496C275.952 65.3999 276.351 65.321 276.691 65.1634C277.037 65.0057 277.307 64.7841 277.503 64.4986C277.699 64.2088 277.795 63.8743 277.791 63.495C277.795 63.1243 277.712 62.8026 277.542 62.5298C277.375 62.2528 277.139 62.0376 276.832 61.8842C276.53 61.7308 276.174 61.6541 275.765 61.6541C275.364 61.6541 274.993 61.7266 274.652 61.8714C274.311 62.0163 274.037 62.223 273.828 62.4915C273.619 62.7557 273.508 63.071 273.495 63.4375H271.213C271.231 62.7045 271.441 62.0611 271.846 61.5071C272.255 60.9489 272.801 60.5142 273.483 60.2031C274.164 59.8878 274.929 59.7301 275.777 59.7301C276.651 59.7301 277.409 59.8942 278.053 60.2223C278.701 60.5462 279.201 60.983 279.555 61.5327C279.909 62.0824 280.086 62.6896 280.086 63.3544C280.09 64.0916 279.873 64.7095 279.434 65.2081C278.999 65.7067 278.428 66.0327 277.721 66.1861V66.2884C278.641 66.4162 279.346 66.7571 279.836 67.3111C280.331 67.8608 280.576 68.5447 280.571 69.3629C280.571 70.0959 280.363 70.7521 279.945 71.3317C279.532 71.907 278.961 72.3587 278.232 72.6868C277.508 73.0149 276.677 73.179 275.739 73.179Z" fill="#1E293B"/>
<path d="M268.473 84.4545C268.421 84.0227 268.214 83.6875 267.85 83.4489C267.487 83.2102 267.041 83.0909 266.512 83.0909C266.126 83.0909 265.788 83.1534 265.498 83.2784C265.211 83.4034 264.987 83.5753 264.825 83.794C264.666 84.0128 264.586 84.2614 264.586 84.5398C264.586 84.7727 264.642 84.973 264.752 85.1406C264.866 85.3054 265.011 85.4432 265.187 85.554C265.363 85.6619 265.548 85.7514 265.741 85.8224C265.934 85.8906 266.112 85.946 266.274 85.9886L267.16 86.2273C267.387 86.2869 267.64 86.3693 267.919 86.4744C268.2 86.5795 268.468 86.723 268.724 86.9048C268.982 87.0838 269.196 87.3139 269.363 87.5952C269.531 87.8764 269.615 88.2216 269.615 88.6307C269.615 89.1023 269.491 89.5284 269.244 89.9091C269 90.2898 268.642 90.5923 268.17 90.8168C267.701 91.0412 267.132 91.1534 266.461 91.1534C265.836 91.1534 265.295 91.0526 264.838 90.8509C264.383 90.6491 264.025 90.3679 263.764 90.0071C263.505 89.6463 263.359 89.2273 263.325 88.75H264.416C264.444 89.0795 264.555 89.3523 264.748 89.5682C264.944 89.7812 265.191 89.9403 265.49 90.0455C265.791 90.1477 266.115 90.1989 266.461 90.1989C266.865 90.1989 267.227 90.1335 267.548 90.0028C267.869 89.8693 268.123 89.6847 268.311 89.4489C268.498 89.2102 268.592 88.9318 268.592 88.6136C268.592 88.3239 268.511 88.0881 268.349 87.9062C268.187 87.7244 267.974 87.5767 267.71 87.4631C267.446 87.3494 267.16 87.25 266.853 87.1648L265.779 86.858C265.098 86.6619 264.558 86.3821 264.16 86.0185C263.762 85.6548 263.563 85.179 263.563 84.5909C263.563 84.1023 263.696 83.6761 263.96 83.3125C264.227 82.946 264.585 82.6619 265.034 82.4602C265.485 82.2557 265.99 82.1534 266.546 82.1534C267.109 82.1534 267.609 82.2543 268.046 82.456C268.484 82.6548 268.83 82.9276 269.086 83.2741C269.345 83.6207 269.481 84.0142 269.495 84.4545H268.473ZM273.442 91.1534C273.027 91.1534 272.651 91.0753 272.313 90.919C271.975 90.7599 271.706 90.5312 271.507 90.233C271.308 89.9318 271.209 89.5682 271.209 89.142C271.209 88.767 271.283 88.4631 271.431 88.2301C271.578 87.9943 271.776 87.8097 272.023 87.6761C272.27 87.5426 272.543 87.4432 272.841 87.3778C273.142 87.3097 273.445 87.2557 273.749 87.2159C274.146 87.1648 274.469 87.1264 274.716 87.1009C274.966 87.0724 275.148 87.0256 275.262 86.9602C275.378 86.8949 275.436 86.7812 275.436 86.6193V86.5852C275.436 86.1648 275.321 85.8381 275.091 85.6051C274.864 85.3722 274.519 85.2557 274.056 85.2557C273.575 85.2557 273.199 85.3608 272.926 85.571C272.654 85.7812 272.462 86.0057 272.351 86.2443L271.396 85.9034C271.567 85.5057 271.794 85.196 272.078 84.9744C272.365 84.75 272.678 84.5937 273.016 84.5057C273.357 84.4148 273.692 84.3693 274.021 84.3693C274.232 84.3693 274.473 84.3949 274.746 84.446C275.021 84.4943 275.287 84.5952 275.543 84.7486C275.801 84.902 276.016 85.1335 276.186 85.4432C276.357 85.7528 276.442 86.1676 276.442 86.6875V91H275.436V90.1136H275.385C275.317 90.2557 275.203 90.4077 275.044 90.5696C274.885 90.7315 274.673 90.8693 274.409 90.983C274.145 91.0966 273.823 91.1534 273.442 91.1534ZM273.595 90.25C273.993 90.25 274.328 90.1719 274.601 90.0156C274.877 89.8594 275.084 89.6577 275.223 89.4105C275.365 89.1634 275.436 88.9034 275.436 88.6307V87.7102C275.394 87.7614 275.3 87.8082 275.155 87.8509C275.013 87.8906 274.848 87.9261 274.661 87.9574C274.476 87.9858 274.296 88.0114 274.119 88.0341C273.946 88.054 273.806 88.071 273.698 88.0852C273.436 88.1193 273.192 88.1747 272.965 88.2514C272.74 88.3253 272.558 88.4375 272.419 88.5881C272.283 88.7358 272.215 88.9375 272.215 89.1932C272.215 89.5426 272.344 89.8068 272.602 89.9858C272.864 90.1619 273.195 90.25 273.595 90.25Z" fill="#94A3B8"/>
<path d="M309.57 73V71.2869L314.115 66.8317C314.549 66.3928 314.912 66.0028 315.201 65.6619C315.491 65.321 315.708 64.9908 315.853 64.6712C315.998 64.3516 316.071 64.0107 316.071 63.6484C316.071 63.2351 315.977 62.8814 315.789 62.5874C315.602 62.2891 315.344 62.0589 315.016 61.897C314.688 61.7351 314.315 61.6541 313.897 61.6541C313.467 61.6541 313.09 61.7436 312.766 61.9226C312.442 62.0973 312.191 62.3466 312.012 62.6705C311.837 62.9943 311.75 63.38 311.75 63.8274H309.493C309.493 62.9964 309.683 62.2741 310.062 61.6605C310.441 61.0469 310.963 60.5717 311.628 60.2351C312.297 59.8984 313.064 59.7301 313.929 59.7301C314.807 59.7301 315.579 59.8942 316.243 60.2223C316.908 60.5504 317.424 61 317.79 61.571C318.161 62.142 318.346 62.794 318.346 63.527C318.346 64.017 318.253 64.4986 318.065 64.9716C317.878 65.4446 317.547 65.9687 317.074 66.544C316.606 67.1193 315.947 67.8161 315.099 68.6342L312.843 70.929V71.0185H318.544V73H309.57ZM320.532 70.571V68.6854L326.087 59.9091H327.659V62.5938H326.7L322.961 68.5192V68.6214H330.714V70.571H320.532ZM326.777 73V69.9957L326.803 69.152V59.9091H329.04V73H326.777Z" fill="#1E293B"/>
<path d="M318.367 84.4545C318.316 84.0227 318.109 83.6875 317.745 83.4489C317.381 83.2102 316.935 83.0909 316.407 83.0909C316.02 83.0909 315.682 83.1534 315.393 83.2784C315.106 83.4034 314.881 83.5753 314.719 83.794C314.56 84.0128 314.481 84.2614 314.481 84.5398C314.481 84.7727 314.536 84.973 314.647 85.1406C314.761 85.3054 314.905 85.4432 315.082 85.554C315.258 85.6619 315.442 85.7514 315.636 85.8224C315.829 85.8906 316.006 85.946 316.168 85.9886L317.055 86.2273C317.282 86.2869 317.535 86.3693 317.813 86.4744C318.094 86.5795 318.363 86.723 318.618 86.9048C318.877 87.0838 319.09 87.3139 319.258 87.5952C319.425 87.8764 319.509 88.2216 319.509 88.6307C319.509 89.1023 319.386 89.5284 319.138 89.9091C318.894 90.2898 318.536 90.5923 318.064 90.8168C317.596 91.0412 317.026 91.1534 316.356 91.1534C315.731 91.1534 315.189 91.0526 314.732 90.8509C314.278 90.6491 313.92 90.3679 313.658 90.0071C313.4 89.6463 313.253 89.2273 313.219 88.75H314.31C314.339 89.0795 314.449 89.3523 314.643 89.5682C314.839 89.7812 315.086 89.9403 315.384 90.0455C315.685 90.1477 316.009 90.1989 316.356 90.1989C316.759 90.1989 317.121 90.1335 317.442 90.0028C317.763 89.8693 318.018 89.6847 318.205 89.4489C318.393 89.2102 318.486 88.9318 318.486 88.6136C318.486 88.3239 318.405 88.0881 318.243 87.9062C318.082 87.7244 317.868 87.5767 317.604 87.4631C317.34 87.3494 317.055 87.25 316.748 87.1648L315.674 86.858C314.992 86.6619 314.452 86.3821 314.055 86.0185C313.657 85.6548 313.458 85.179 313.458 84.5909C313.458 84.1023 313.59 83.6761 313.854 83.3125C314.121 82.946 314.479 82.6619 314.928 82.4602C315.38 82.2557 315.884 82.1534 316.441 82.1534C317.003 82.1534 317.503 82.2543 317.941 82.456C318.378 82.6548 318.725 82.9276 318.981 83.2741C319.239 83.6207 319.376 84.0142 319.39 84.4545H318.367ZM325.535 88.3239V84.4545H326.541V91H325.535V89.892H325.467C325.314 90.2244 325.075 90.5071 324.751 90.7401C324.427 90.9702 324.018 91.0852 323.524 91.0852C323.115 91.0852 322.751 90.9957 322.433 90.8168C322.115 90.6349 321.865 90.3622 321.683 89.9986C321.501 89.6321 321.41 89.1705 321.41 88.6136V84.4545H322.416V88.5455C322.416 89.0227 322.55 89.4034 322.817 89.6875C323.086 89.9716 323.43 90.1136 323.848 90.1136C324.098 90.1136 324.352 90.0497 324.611 89.9219C324.872 89.794 325.091 89.598 325.267 89.3338C325.446 89.0696 325.535 88.733 325.535 88.3239Z" fill="#94A3B8"/>
<path d="M121.92 7.74C121.9 9.26 121.58 10.14 120.42 11.46L115.52 17.04H122.14V18.98H112.52V17.22L118.6 10.28C119.38 9.4 119.68 8.68 119.68 7.76C119.68 6.14 118.62 5 117.12 5C115.52 5 114.56 6.1 114.56 7.76V8.18H112.3V7.74C112.3 5.14 114.04 3.04 117.12 3.04C120.2 3.04 121.92 5.14 121.92 7.74ZM134.664 11.14C134.664 14.72 134.184 16.6 133.064 17.84C132.204 18.76 130.984 19.24 129.484 19.24C127.984 19.24 126.724 18.76 125.884 17.84C124.764 16.6 124.284 14.72 124.284 11.14C124.284 7.56 124.764 5.68 125.884 4.44C126.724 3.52 127.984 3.04 129.484 3.04C130.984 3.04 132.204 3.52 133.064 4.44C134.184 5.68 134.664 7.56 134.664 11.14ZM132.404 11.14C132.404 8.16 132.164 6.72 131.504 5.9C131.004 5.3 130.364 4.98 129.484 4.98C128.604 4.98 127.944 5.3 127.444 5.9C126.784 6.72 126.524 8.16 126.524 11.14C126.524 14.12 126.784 15.56 127.444 16.38C127.944 16.98 128.604 17.3 129.484 17.3C130.364 17.3 131.004 16.98 131.504 16.38C132.164 15.56 132.404 14.12 132.404 11.14ZM146.568 7.74C146.548 9.26 146.228 10.14 145.068 11.46L140.168 17.04H146.788V18.98H137.168V17.22L143.248 10.28C144.028 9.4 144.328 8.68 144.328 7.76C144.328 6.14 143.268 5 141.768 5C140.168 5 139.208 6.1 139.208 7.76V8.18H136.948V7.74C136.948 5.14 138.688 3.04 141.768 3.04C144.848 3.04 146.568 5.14 146.568 7.74ZM156.873 14.46C156.873 12.68 155.733 11.62 154.133 11.62H152.513V9.7H154.133C155.533 9.7 156.433 8.74 156.433 7.36C156.433 5.92 155.453 5 154.093 5C152.673 5 151.753 5.92 151.753 7.36V7.52H149.493V7.18C149.493 4.82 151.193 3.04 154.093 3.04C156.993 3.04 158.673 4.82 158.673 7.18C158.673 8.8 157.753 10.18 156.293 10.64C158.013 11.14 159.133 12.5 159.133 14.6C159.133 17.44 157.033 19.24 154.093 19.24C151.153 19.24 149.013 17.44 149.013 14.54V14.3H151.293V14.42C151.293 16.26 152.473 17.28 154.093 17.28C155.673 17.28 156.873 16.28 156.873 14.46ZM169.757 12.4H162.317V2.16H164.477V10.5H169.857C171.037 10.5 172.117 10.44 173.037 10.12V11.92C172.137 12.28 170.997 12.4 169.757 12.4ZM169.757 8.9V7.06H174.797V5.56H169.757V3.7H174.797V2.04H176.977V14.74H174.797V8.9H169.757ZM177.297 20.26H163.417V14.1H165.597V18.38H177.297V20.26ZM186.676 5.26V3.3H196.276V5.06L191.016 18.98H188.636L193.976 5.26H186.676ZM199.701 4.62C199.701 3.76 200.161 3.14 200.861 2.7C201.801 2.16 203.201 1.92 204.701 1.92C206.181 1.92 207.581 2.16 208.521 2.7C209.241 3.14 209.661 3.76 209.661 4.62C209.661 5.44 209.241 6.06 208.521 6.5C207.581 7.06 206.181 7.28 204.701 7.28C203.201 7.28 201.801 7.06 200.861 6.5C200.161 6.06 199.701 5.44 199.701 4.62ZM201.781 4.62C201.781 4.88 201.941 5.1 202.221 5.26C202.721 5.58 203.621 5.68 204.701 5.68C205.741 5.68 206.661 5.58 207.181 5.26C207.461 5.1 207.581 4.88 207.581 4.62C207.581 4.34 207.461 4.12 207.181 3.96C206.661 3.62 205.741 3.52 204.701 3.52C203.621 3.52 202.721 3.62 202.221 3.96C201.941 4.12 201.781 4.34 201.781 4.62ZM214.321 12.44H212.141V11.96H208.181V10.38H212.141V2.04H214.321V12.44ZM205.001 9.82V12.42H202.821V9.82H199.021V8.12H207.261C208.721 8.12 210.001 8.06 211.001 7.78V9.38C210.081 9.68 208.761 9.82 207.321 9.82H205.001ZM202.941 18.78H214.541V20.36H200.761V15.98H212.141V14.72H200.761V13.14H214.321V17.54H202.941V18.78Z" fill="black"/>
<path d="M320.1 19.0001C319.902 18.9992 319.709 18.9398 319.545 18.8292C319.381 18.7187 319.254 18.5619 319.179 18.3789C319.104 18.1959 319.085 17.9947 319.124 17.8009C319.164 17.6071 319.26 17.4293 319.4 17.2901L324 12.7101C324.094 12.6171 324.168 12.5065 324.219 12.3846C324.27 12.2628 324.296 12.1321 324.296 12.0001C324.296 11.868 324.27 11.7373 324.219 11.6155C324.168 11.4936 324.094 11.383 324 11.2901L319.4 6.71006C319.306 6.6171 319.232 6.5065 319.181 6.38464C319.13 6.26278 319.104 6.13207 319.104 6.00006C319.104 5.86805 319.13 5.73734 319.181 5.61548C319.232 5.49362 319.306 5.38302 319.4 5.29006C319.587 5.10381 319.841 4.99927 320.105 4.99927C320.369 4.99927 320.623 5.10381 320.81 5.29006L325.4 9.88006C325.962 10.4426 326.277 11.2051 326.277 12.0001C326.277 12.7951 325.962 13.5576 325.4 14.1201L320.81 18.7101C320.717 18.8027 320.606 18.8761 320.484 18.9258C320.362 18.9756 320.232 19.0008 320.1 19.0001Z" fill="#374957"/>
<path d="M313.1 19.0001C312.902 18.9992 312.709 18.9398 312.545 18.8292C312.381 18.7187 312.254 18.5619 312.179 18.3789C312.104 18.1959 312.085 17.9947 312.124 17.8009C312.164 17.6071 312.26 17.4293 312.4 17.2901L317.69 12.0001L312.4 6.71006C312.306 6.6171 312.232 6.5065 312.181 6.38464C312.13 6.26278 312.104 6.13207 312.104 6.00006C312.104 5.86805 312.13 5.73734 312.181 5.61548C312.232 5.49362 312.306 5.38302 312.4 5.29006C312.587 5.10381 312.841 4.99927 313.105 4.99927C313.369 4.99927 313.623 5.10381 313.81 5.29006L319.81 11.2901C319.904 11.383 319.978 11.4936 320.029 11.6155C320.08 11.7373 320.106 11.868 320.106 12.0001C320.106 12.1321 320.08 12.2628 320.029 12.3846C319.978 12.5065 319.904 12.6171 319.81 12.7101L313.81 18.7101C313.717 18.8027 313.606 18.8761 313.484 18.9258C313.362 18.9756 313.232 19.0008 313.1 19.0001Z" fill="#374957"/>
<path d="M14.48 19.0001C14.2177 18.999 13.9663 18.8948 13.78 18.7101L9.19004 14.1201C8.62824 13.5576 8.31268 12.7951 8.31268 12.0001C8.31268 11.2051 8.62824 10.4426 9.19004 9.88006L13.78 5.29006C13.9674 5.10381 14.2209 4.99927 14.485 4.99927C14.7492 4.99927 15.0027 5.10381 15.19 5.29006C15.2838 5.38302 15.3582 5.49362 15.4089 5.61548C15.4597 5.73734 15.4858 5.86805 15.4858 6.00006C15.4858 6.13207 15.4597 6.26278 15.4089 6.38464C15.3582 6.5065 15.2838 6.6171 15.19 6.71006L10.6 11.2901C10.5063 11.383 10.4319 11.4936 10.3812 11.6155C10.3304 11.7373 10.3042 11.868 10.3042 12.0001C10.3042 12.1321 10.3304 12.2628 10.3812 12.3846C10.4319 12.5065 10.5063 12.6171 10.6 12.7101L15.19 17.2901C15.2838 17.383 15.3582 17.4936 15.4089 17.6155C15.4597 17.7373 15.4858 17.868 15.4858 18.0001C15.4858 18.1321 15.4597 18.2628 15.4089 18.3846C15.3582 18.5065 15.2838 18.6171 15.19 18.7101C15.0966 18.8027 14.9858 18.8761 14.864 18.9258C14.7421 18.9756 14.6117 19.0008 14.48 19.0001Z" fill="#374957"/>
<path d="M21.4799 19.0001C21.2175 18.999 20.9661 18.8948 20.7799 18.7101L14.7799 12.7101C14.6861 12.6171 14.6117 12.5065 14.561 12.3846C14.5102 12.2628 14.4841 12.1321 14.4841 12.0001C14.4841 11.868 14.5102 11.7373 14.561 11.6155C14.6117 11.4936 14.6861 11.383 14.7799 11.2901L20.7799 5.29006C20.9672 5.10381 21.2207 4.99927 21.4849 4.99927C21.749 4.99927 22.0025 5.10381 22.1899 5.29006C22.2836 5.38302 22.358 5.49362 22.4087 5.61548C22.4595 5.73734 22.4857 5.86805 22.4857 6.00006C22.4857 6.13207 22.4595 6.26278 22.4087 6.38464C22.358 6.5065 22.2836 6.6171 22.1899 6.71006L16.8999 12.0001L22.1899 17.2901C22.2836 17.383 22.358 17.4936 22.4087 17.6155C22.4595 17.7373 22.4857 17.868 22.4857 18.0001C22.4857 18.1321 22.4595 18.2628 22.4087 18.3846C22.358 18.5065 22.2836 18.6171 22.1899 18.7101C22.0964 18.8027 21.9856 18.8761 21.8638 18.9258C21.7419 18.9756 21.6115 19.0008 21.4799 19.0001Z" fill="#374957"/>
</svg>
