<svg width="32" height="33" viewBox="0 0 32 33" fill="none" xmlns="http://www.w3.org/2000/svg">
<path d="M8.52344 26.4873H23.4658C25.5605 26.4873 26.6348 25.4131 26.6348 23.3506V10.1807C26.6348 8.10742 25.5605 7.0332 23.4658 7.0332H8.52344C6.42871 7.0332 5.35449 8.09668 5.35449 10.1807V23.3506C5.35449 25.4238 6.42871 26.4873 8.52344 26.4873ZM8.42676 25.1553C7.29883 25.1553 6.68652 24.5645 6.68652 23.4043V13.5752C6.68652 12.415 7.29883 11.8135 8.42676 11.8135H23.5518C24.6582 11.8135 25.3027 12.415 25.3027 13.5752V23.4043C25.3027 24.5645 24.6582 25.1553 23.5518 25.1553H8.42676ZM13.8623 15.6377H14.4961C14.8291 15.6377 14.9258 15.5518 14.9258 15.2188V14.585C14.9258 14.252 14.8291 14.166 14.4961 14.166H13.8623C13.5186 14.166 13.4326 14.252 13.4326 14.585V15.2188C13.4326 15.5518 13.5186 15.6377 13.8623 15.6377ZM17.5039 15.6377H18.1377C18.4707 15.6377 18.5674 15.5518 18.5674 15.2188V14.585C18.5674 14.252 18.4707 14.166 18.1377 14.166H17.5039C17.1709 14.166 17.0742 14.252 17.0742 14.585V15.2188C17.0742 15.5518 17.1709 15.6377 17.5039 15.6377ZM21.1455 15.6377H21.7793C22.1123 15.6377 22.209 15.5518 22.209 15.2188V14.585C22.209 14.252 22.1123 14.166 21.7793 14.166H21.1455C20.8125 14.166 20.7158 14.252 20.7158 14.585V15.2188C20.7158 15.5518 20.8125 15.6377 21.1455 15.6377ZM10.2207 19.2148H10.8545C11.1875 19.2148 11.2842 19.1396 11.2842 18.8066V18.1729C11.2842 17.8398 11.1875 17.7539 10.8545 17.7539H10.2207C9.87695 17.7539 9.79102 17.8398 9.79102 18.1729V18.8066C9.79102 19.1396 9.87695 19.2148 10.2207 19.2148ZM13.8623 19.2148H14.4961C14.8291 19.2148 14.9258 19.1396 14.9258 18.8066V18.1729C14.9258 17.8398 14.8291 17.7539 14.4961 17.7539H13.8623C13.5186 17.7539 13.4326 17.8398 13.4326 18.1729V18.8066C13.4326 19.1396 13.5186 19.2148 13.8623 19.2148ZM17.5039 19.2148H18.1377C18.4707 19.2148 18.5674 19.1396 18.5674 18.8066V18.1729C18.5674 17.8398 18.4707 17.7539 18.1377 17.7539H17.5039C17.1709 17.7539 17.0742 17.8398 17.0742 18.1729V18.8066C17.0742 19.1396 17.1709 19.2148 17.5039 19.2148ZM21.1455 19.2148H21.7793C22.1123 19.2148 22.209 19.1396 22.209 18.8066V18.1729C22.209 17.8398 22.1123 17.7539 21.7793 17.7539H21.1455C20.8125 17.7539 20.7158 17.8398 20.7158 18.1729V18.8066C20.7158 19.1396 20.8125 19.2148 21.1455 19.2148ZM10.2207 22.8027H10.8545C11.1875 22.8027 11.2842 22.7275 11.2842 22.3945V21.7607C11.2842 21.4277 11.1875 21.3418 10.8545 21.3418H10.2207C9.87695 21.3418 9.79102 21.4277 9.79102 21.7607V22.3945C9.79102 22.7275 9.87695 22.8027 10.2207 22.8027ZM13.8623 22.8027H14.4961C14.8291 22.8027 14.9258 22.7275 14.9258 22.3945V21.7607C14.9258 21.4277 14.8291 21.3418 14.4961 21.3418H13.8623C13.5186 21.3418 13.4326 21.4277 13.4326 21.7607V22.3945C13.4326 22.7275 13.5186 22.8027 13.8623 22.8027ZM17.5039 22.8027H18.1377C18.4707 22.8027 18.5674 22.7275 18.5674 22.3945V21.7607C18.5674 21.4277 18.4707 21.3418 18.1377 21.3418H17.5039C17.1709 21.3418 17.0742 21.4277 17.0742 21.7607V22.3945C17.0742 22.7275 17.1709 22.8027 17.5039 22.8027Z" fill="#3D3A3A"/>
</svg>
